<svg width="1622" height="42" viewBox="0 0 1622 42" fill="none" xmlns="http://www.w3.org/2000/svg">
  <path
    d="M182.092 30.4598L181.662 4.06787H189.444V37.3319H178.255L170.489 10.0327H170.322L170.753 37.3319H163.02V4.06787H174.694L181.919 30.4598H182.092Z"
    fill="#11112B" />
  <path
    d="M40.6265 7.18246L36.321 37.6819H27.8336L33.6622 4.06787H47.6441L53.446 37.6819H44.9921L40.8035 7.18246H40.6265Z"
    fill="#11112B" />
  <path
    d="M73.2132 37.6819L67.9558 7.46106H67.7854L67.5883 37.6819H59.7156L60.4103 4.06787H73.2366L77.1178 29.7633H77.2849L81.1695 4.06787H93.989L94.6704 37.6819H86.8143L86.6072 7.46106H86.4436L81.1895 37.6819H73.2132Z"
    fill="#11112B" />
  <path
    d="M14.5965 28.1989C14.9038 29.0133 14.8103 30.0598 14.6667 30.692C14.4028 31.81 13.6947 32.9494 11.6037 32.9494C9.63305 32.9494 8.43727 31.7421 8.43727 29.8955V26.6416H0.00668986L0 29.2455C0 36.7391 5.51796 39 11.43 39C17.115 39 21.7979 36.9212 22.5428 31.3207C22.9236 28.4168 22.6396 26.5166 22.5094 25.7987C21.1833 18.7623 9.25226 16.6621 8.36378 12.726C8.21347 12.0509 8.25689 11.3365 8.33037 10.9544C8.54749 9.88283 9.23556 8.70057 11.2029 8.70057C13.04 8.70057 14.1256 9.91497 14.1256 11.7509C14.1256 12.3688 14.1256 13.8261 14.1256 13.8261H21.9649V11.4651C21.9649 4.14297 15.819 3 11.3666 3C5.77515 3 1.2058 4.9752 0.370763 10.4472C0.143632 11.958 0.11023 13.3046 0.440904 14.9905C1.81371 21.859 12.9799 23.8485 14.5965 28.1989Z"
    fill="#11112B" />
  <path
    d="M116.812 28.1379C117.123 28.9451 117.023 29.9631 116.882 30.5953C116.625 31.7097 115.924 32.8312 113.846 32.8312C111.902 32.8312 110.717 31.624 110.717 29.8202L110.71 26.5949H102.366L102.356 29.163C102.356 36.5816 107.824 38.8211 113.676 38.8211C119.301 38.8211 123.94 36.7709 124.672 31.2203C125.053 28.3379 124.782 26.4627 124.645 25.7591C123.326 18.787 111.515 16.7082 110.636 12.8114C110.486 12.1399 110.529 11.4327 110.606 11.0719C110.83 9.99324 111.505 8.83956 113.452 8.83956C115.272 8.83956 116.335 10.0254 116.335 11.847C116.335 12.4578 116.335 13.9008 116.335 13.9008H124.114V11.5648C124.114 4.32125 118.018 3.18542 113.609 3.18542C108.081 3.18542 103.549 5.13562 102.73 10.5683C102.503 12.0577 102.48 13.3793 102.804 15.058C104.156 21.8551 115.212 23.8303 116.812 28.1379Z"
    fill="#11112B" />
  <path
    d="M143.216 32.6527C145.397 32.6527 146.079 31.0383 146.229 30.2132C146.293 29.8489 146.309 29.3631 146.303 28.9274V4.05347H154.252V28.1666C154.269 28.7845 154.212 30.056 154.185 30.3739C153.628 36.6496 148.988 38.6855 143.213 38.6855C137.431 38.6855 132.788 36.6496 132.237 30.3739C132.21 30.056 132.154 28.7845 132.17 28.1666V4.05347H140.113V28.9274C140.113 29.3631 140.127 29.8525 140.187 30.2132C140.357 31.0383 141.018 32.6527 143.216 32.6527Z"
    fill="#11112B" />
  <path
    d="M208.79 32.2993C211.068 32.2993 211.863 30.7598 212.01 29.8633C212.067 29.4775 212.084 29.0096 212.081 28.5846V23.7055H208.854V18.7979H220V27.8202C219.993 28.4489 219.98 28.9132 219.886 30.0347C219.362 36.1496 214.402 38.332 208.831 38.332C203.249 38.332 198.296 36.1496 197.765 30.0347C197.674 28.9132 197.661 28.4489 197.651 27.8202L197.658 13.6653C197.658 13.0688 197.728 12.0115 197.788 11.4508C198.486 5.16799 203.249 3.14636 208.831 3.14636C214.405 3.14636 219.285 5.15728 219.863 11.4508C219.967 12.5223 219.933 13.6653 219.933 13.6653V14.7868H212.007V12.9045C212.014 12.908 211.997 12.1044 211.903 11.6258C211.77 10.8828 211.165 9.17553 208.77 9.17553C206.479 9.17553 205.808 10.79 205.641 11.6258C205.544 12.0687 205.507 12.6687 205.507 13.2116V28.5846C205.5 29.0096 205.524 29.4775 205.587 29.8633C205.724 30.7634 206.516 32.2993 208.79 32.2993Z"
    fill="#11112B" />
  <path
    d="M477.194 21.5387C477.194 27.3685 472.603 31.6644 466.969 31.6644C461.335 31.6644 456.744 27.3685 456.744 21.5387C456.744 15.6679 461.335 11.4131 466.969 11.4131C472.603 11.4131 477.194 15.6679 477.194 21.5387ZM472.718 21.5387C472.718 17.8957 470.057 15.4031 466.969 15.4031C463.88 15.4031 461.22 17.8957 461.22 21.5387C461.22 25.1453 463.88 27.6744 466.969 27.6744C470.057 27.6744 472.718 25.1407 472.718 21.5387Z"
    fill="#11112B" />
  <path
    d="M499.253 21.5387C499.253 27.3685 494.662 31.6644 489.028 31.6644C483.393 31.6644 478.802 27.3685 478.802 21.5387C478.802 15.6724 483.393 11.4131 489.028 11.4131C494.662 11.4131 499.253 15.6679 499.253 21.5387ZM494.777 21.5387C494.777 17.8957 492.116 15.4031 489.028 15.4031C485.939 15.4031 483.278 17.8957 483.278 21.5387C483.278 25.1453 485.939 27.6744 489.028 27.6744C492.116 27.6744 494.777 25.1407 494.777 21.5387Z"
    fill="#11112B" />
  <path
    d="M520.392 12.0248V30.2035C520.392 37.6813 515.953 40.7355 510.705 40.7355C505.765 40.7355 502.791 37.4531 501.67 34.7687L505.567 33.1572C506.261 34.8053 507.961 36.75 510.7 36.75C514.06 36.75 516.142 34.6911 516.142 30.8153V29.359H515.985C514.983 30.587 513.053 31.6598 510.618 31.6598C505.521 31.6598 500.852 27.2498 500.852 21.5753C500.852 15.8596 505.521 11.4131 510.618 11.4131C513.049 11.4131 514.979 12.4859 515.985 13.6774H516.142V12.0294H520.392V12.0248ZM516.459 21.5753C516.459 18.0098 514.064 15.4031 511.017 15.4031C507.929 15.4031 505.342 18.0098 505.342 21.5753C505.342 25.1042 507.929 27.6744 511.017 27.6744C514.064 27.6744 516.459 25.1042 516.459 21.5753Z"
    fill="#11112B" />
  <path d="M527.401 1.36951V31.0434H523.035V1.36951H527.401Z" fill="#11112B" />
  <path
    d="M544.414 24.8713L547.888 27.1721C546.766 28.8202 544.064 31.6598 539.395 31.6598C533.605 31.6598 529.28 27.2132 529.28 21.5341C529.28 15.5126 533.641 11.4084 538.894 11.4084C544.184 11.4084 546.771 15.5902 547.617 17.85L548.081 19.0004L534.455 24.6065C535.498 26.638 537.12 27.6743 539.395 27.6743C541.675 27.6743 543.255 26.5604 544.414 24.8713ZM533.72 21.2282L542.828 17.4711C542.327 16.2065 540.82 15.3254 539.046 15.3254C536.771 15.3254 533.605 17.3204 533.72 21.2282Z"
    fill="#11112B" />
  <path
    d="M440.218 18.9046V14.6087H454.79C454.933 15.3574 455.006 16.2431 455.006 17.2018C455.006 20.4248 454.119 24.4103 451.261 27.2498C448.481 30.1259 444.928 31.6598 440.222 31.6598C431.5 31.6598 424.165 24.602 424.165 15.9372C424.165 7.27243 431.5 0.2146 440.222 0.2146C445.048 0.2146 448.485 2.09547 451.068 4.54699L448.017 7.5783C446.164 5.85264 443.655 4.51047 440.218 4.51047C433.848 4.51047 428.867 9.60982 428.867 15.9372C428.867 22.2646 433.848 27.3639 440.218 27.3639C444.349 27.3639 446.702 25.7159 448.21 24.2185C449.432 23.0042 450.236 21.2694 450.553 18.9L440.218 18.9046Z"
    fill="#11112B" />
  <g clip-path="url(#clip0_33_4561)">
    <path
      d="M824.948 31.1243C818.215 36.2271 808.456 38.9496 800.054 38.9496C788.273 38.9496 777.667 34.4691 769.643 27.0172C769.012 26.4312 769.577 25.6326 770.334 26.0889C778.993 31.2695 789.7 34.3861 800.76 34.3861C808.219 34.3861 816.425 32.7993 823.97 29.5064C825.11 29.0085 826.063 30.2738 824.948 31.1243Z"
      fill="#11112B" />
    <path
      d="M827.747 27.8314C826.89 26.7009 822.058 27.2973 819.89 27.5618C819.229 27.6447 819.128 27.0536 819.723 26.6283C823.571 23.8436 829.886 24.6474 830.622 25.5808C831.358 26.5194 830.43 33.0276 826.814 36.1338C826.26 36.6109 825.73 36.3568 825.977 35.7241C826.789 33.6395 828.61 28.9671 827.747 27.8314Z"
      fill="#11112B" />
    <path
      d="M820.041 6.96912V4.26215C820.041 3.85248 820.343 3.57764 820.707 3.57764H832.493C832.871 3.57764 833.174 3.85767 833.174 4.26215V6.58018C833.169 6.96912 832.851 7.47732 832.286 8.28111L826.179 17.2473C828.448 17.1902 830.844 17.5377 832.901 18.7304C833.365 19.0001 833.492 19.3942 833.527 19.7831V22.6716C833.527 23.0657 833.103 23.5272 832.659 23.2887C829.033 21.3336 824.217 21.121 820.207 23.3094C819.799 23.5376 819.37 23.0812 819.37 22.6871V19.9439C819.37 19.5031 819.375 18.7511 819.804 18.0822L826.88 7.64845H820.722C820.343 7.64845 820.041 7.37361 820.041 6.96912Z"
      fill="#11112B" />
    <path
      d="M777.046 23.8591H773.46C773.117 23.8332 772.845 23.5687 772.82 23.2317V4.30886C772.82 3.9303 773.127 3.62953 773.511 3.62953H776.855C777.203 3.64508 777.48 3.91993 777.505 4.26219V6.73579H777.571C778.443 4.34516 780.082 3.23022 782.291 3.23022C784.536 3.23022 785.938 4.34516 786.946 6.73579C787.814 4.34516 789.786 3.23022 791.899 3.23022C793.402 3.23022 795.046 3.86807 796.05 5.29934C797.184 6.89136 796.952 9.20421 796.952 11.2318L796.947 23.1746C796.947 23.5532 796.64 23.8591 796.256 23.8591H792.676C792.318 23.8332 792.03 23.5376 792.03 23.1746V13.1454C792.03 12.3468 792.101 10.3554 791.929 9.59832C791.662 8.32782 790.86 7.97 789.821 7.97C788.954 7.97 788.046 8.56636 787.678 9.52054C787.309 10.4747 787.345 12.0719 787.345 13.1454V23.1746C787.345 23.5532 787.037 23.8591 786.654 23.8591H783.073C782.71 23.8332 782.427 23.5376 782.427 23.1746L782.422 13.1454C782.422 11.0348 782.76 7.92851 780.213 7.92851C777.636 7.92851 777.737 10.957 777.737 13.1454V23.1746C777.737 23.5532 777.429 23.8591 777.046 23.8591Z"
      fill="#11112B" />
    <path
      d="M843.321 3.23022C848.642 3.23022 851.522 7.92851 851.522 13.9025C851.522 19.6742 848.339 24.2533 843.321 24.2533C838.096 24.2533 835.252 19.555 835.252 13.7003C835.252 7.80924 838.131 3.23022 843.321 3.23022ZM843.351 7.09361C840.709 7.09361 840.542 10.7962 840.542 13.1039C840.542 15.4167 840.507 20.3536 843.321 20.3536C846.1 20.3536 846.231 16.3709 846.231 13.944C846.231 12.3468 846.166 10.4384 845.697 8.92418C845.293 7.607 844.491 7.09361 843.351 7.09361Z"
      fill="#11112B" />
    <path
      d="M858.421 23.8591H854.85C854.492 23.8332 854.205 23.5376 854.205 23.1746L854.2 4.24663C854.23 3.89919 854.528 3.62953 854.891 3.62953H858.214C858.527 3.64508 858.784 3.86289 858.855 4.15847V7.05212H858.92C859.924 4.46443 861.331 3.23022 863.807 3.23022C865.416 3.23022 866.985 3.82659 867.993 5.4601C868.931 6.97434 868.931 9.52054 868.931 11.3511V23.2628C868.891 23.5947 868.593 23.8591 868.24 23.8591H864.645C864.317 23.8332 864.044 23.5843 864.009 23.2628V12.9846C864.009 10.9155 864.241 7.88703 861.765 7.88703C860.892 7.88703 860.09 8.48858 859.692 9.40127C859.188 10.5577 859.122 11.7089 859.122 12.9846V23.1746C859.117 23.5532 858.804 23.8591 858.421 23.8591Z"
      fill="#11112B" />
    <path
      d="M810.645 14.8204V14.0218C808.053 14.0218 805.314 14.5922 805.314 17.7347C805.314 19.3268 806.116 20.4054 807.493 20.4054C808.502 20.4054 809.405 19.7676 809.974 18.7304C810.681 17.4547 810.645 16.2568 810.645 14.8204ZM814.261 23.8073C814.024 24.0251 813.681 24.0406 813.414 23.8954C812.224 22.879 812.012 22.4071 811.356 21.4374C809.389 23.5013 807.997 24.1184 805.445 24.1184C802.43 24.1184 800.079 22.2049 800.079 18.3726C800.079 15.3804 801.658 13.3424 803.902 12.3468C805.849 11.4652 808.567 11.3096 810.645 11.0659V10.5888C810.645 9.71239 810.711 8.67524 810.211 7.91813C809.773 7.23879 808.936 6.95876 808.199 6.95876C806.832 6.95876 805.612 7.67958 805.314 9.17308C805.254 9.50497 805.017 9.83167 804.694 9.84722L801.214 9.46348C800.922 9.39607 800.599 9.15233 800.68 8.6908C801.481 4.35552 805.289 3.04871 808.698 3.04871C810.443 3.04871 812.723 3.5258 814.1 4.88446C815.845 6.55946 815.678 8.79452 815.678 11.2266V16.9724C815.678 18.6993 816.374 19.4564 817.03 20.3899C817.262 20.7217 817.313 21.121 817.02 21.37C816.289 21.9974 814.988 23.1642 814.271 23.8176L814.261 23.8073Z"
      fill="#11112B" />
    <path
      d="M763.636 14.8204V14.0218C761.044 14.0218 758.305 14.5922 758.305 17.7347C758.305 19.3268 759.107 20.4054 760.484 20.4054C761.492 20.4054 762.395 19.7676 762.965 18.7304C763.671 17.4547 763.636 16.2568 763.636 14.8204ZM767.252 23.8073C767.015 24.0251 766.672 24.0406 766.405 23.8954C765.215 22.879 765.003 22.4071 764.347 21.4374C762.38 23.5013 760.988 24.1184 758.436 24.1184C755.42 24.1184 753.07 22.2049 753.07 18.3726C753.07 15.3804 754.649 13.3424 756.893 12.3468C758.84 11.4652 761.558 11.3096 763.636 11.0659V10.5888C763.636 9.71239 763.701 8.67524 763.202 7.91813C762.763 7.23879 761.926 6.95876 761.19 6.95876C759.823 6.95876 758.603 7.67958 758.305 9.17308C758.245 9.50497 758.008 9.83167 757.685 9.84722L754.205 9.46348C753.912 9.39607 753.59 9.15233 753.67 8.6908C754.472 4.35552 758.28 3.04871 761.689 3.04871C763.434 3.04871 765.714 3.5258 767.091 4.88446C768.836 6.55946 768.669 8.79452 768.669 11.2266V16.9724C768.669 18.6993 769.365 19.4564 770.021 20.3899C770.253 20.7217 770.303 21.121 770.011 21.37C769.279 21.9974 767.978 23.1642 767.262 23.8176L767.252 23.8073Z"
      fill="#11112B" />
  </g>
  <g clip-path="url(#clip1_33_4561)">
    <path
      d="M1129.76 31.7169H1125.43L1121.21 15.2275L1116.94 31.7169H1112.52L1106.72 10.2839H1110.64L1114.83 27.3324L1119.4 10.2839H1123.36L1127.66 27.4335L1131.63 10.2839H1135.43L1129.76 31.7169Z"
      fill="#11112B" />
    <path
      d="M1140.98 11.8517C1140.98 12.4311 1140.77 12.914 1140.35 13.3003C1139.95 13.6866 1139.45 13.8797 1138.87 13.8797C1138.28 13.8797 1137.79 13.6866 1137.38 13.3003C1136.97 12.914 1136.77 12.4311 1136.77 11.8517C1136.77 11.2621 1136.97 10.7691 1137.38 10.3726C1137.8 9.97618 1138.29 9.77795 1138.87 9.77795C1139.47 9.77795 1139.97 9.98129 1140.37 10.3879C1140.77 10.7945 1140.98 11.2825 1140.98 11.8517ZM1137.06 31.7161V16.2702H1140.57V31.7161H1137.06Z"
      fill="#11112B" />
    <path
      d="M1154.07 31.7168V23.1169C1154.07 20.8637 1153.39 18.9199 1151.18 18.9199C1148.98 18.9199 1147.58 20.9533 1147.58 23.0102V31.7165H1144.15V16.2706H1147.58V18.4554H1147.64C1148.78 16.6456 1150.43 16.0101 1152.58 16.0101C1154.19 16.0101 1155.44 16.418 1156.32 17.4752C1157.21 18.5324 1157.6 20.1385 1157.6 22.2936V31.7162L1154.07 31.7168Z"
      fill="#11112B" />
    <path
      d="M1171.31 31.7168V29.7285H1171.25C1170.16 31.6091 1167.94 32.0427 1166.39 32.0427C1161.78 32.0427 1160.08 28.3687 1160.08 24.4589C1160.08 21.8668 1160.71 19.793 1161.97 18.2377C1163.24 16.6723 1164.93 15.9947 1167.05 15.9947C1170.35 15.9947 1171.25 17.8788 1171.25 17.8788H1171.31V8.93994H1174.87V31.717L1171.31 31.7168ZM1171.34 22.9153C1171.34 21.0495 1170.17 18.9296 1167.7 18.9296C1164.88 18.9296 1163.79 21.4488 1163.79 24.3524C1163.79 26.8874 1164.82 29.1882 1167.51 29.2264C1170.14 29.2264 1171.32 26.6499 1171.34 24.5202V22.9153Z"
      fill="#11112B" />
    <path
      d="M1192.83 23.9256C1192.83 29.2758 1189.72 32.174 1185.04 32.174C1179.95 32.174 1177.34 29.048 1177.34 24.2609C1177.34 18.7843 1180.46 15.9357 1185.41 15.9357C1189.94 15.9357 1192.83 18.9065 1192.83 23.9256ZM1189.18 24.0475C1189.18 21.6672 1188.35 19.0213 1185.21 19.0213C1182.2 19.0213 1181.03 21.3209 1181.03 24.139C1181.03 27.2006 1182.44 29.1479 1185.19 29.1479C1188.14 29.1479 1189.15 26.8237 1189.18 24.0475Z"
      fill="#11112B" />
    <path
      d="M1211.66 31.7168H1207.79L1204.83 20.5381L1201.66 31.7168H1197.9L1193.52 16.3182H1197.19L1200.05 28.2813L1203.4 16.3182H1206.84L1209.82 28.2503L1212.61 16.3182H1215.98L1211.66 31.7168Z"
      fill="#11112B" />
    <path
      d="M1227 27.4173C1227 30.8562 1223.96 32.1965 1220.91 32.1965C1218.93 32.1965 1216.96 31.4123 1216.96 31.4123V27.7545C1216.96 27.7545 1218.67 29.2901 1221.07 29.3092C1222.72 29.3092 1223.46 28.7771 1223.46 27.764C1223.5 26.9512 1223.01 26.503 1222.44 26.1669C1222.04 25.923 1221.42 25.6231 1220.58 25.2673C1219.59 24.8302 1218.85 24.4083 1218.37 24.0017C1217.89 23.5951 1217.53 23.1173 1217.3 22.5684C1217.07 22.0195 1216.9 21.4163 1216.9 20.6843C1216.9 17.9075 1219.16 15.9456 1222.77 15.9456C1225.15 15.9456 1226.18 16.5455 1226.18 16.5455V20.0203C1226.18 20.0203 1224.49 18.8186 1222.73 18.8077C1221.47 18.8077 1220.51 19.279 1220.5 20.3456C1220.49 21.7205 1222.13 22.3906 1223.11 22.7973C1224.53 23.3869 1225.58 24.0162 1226.16 24.738C1226.75 25.4597 1227 26.1864 1227 27.4173Z"
      fill="#11112B" />
    <path d="M1077.63 2.99988H1061V20.0631H1077.63V2.99988Z" fill="#11112B" />
    <path d="M1096.08 3H1079.45V20.0632H1096.08V3Z" fill="#11112B" />
    <path d="M1077.63 21.9368H1061V39H1077.63V21.9368Z" fill="#11112B" />
    <path d="M1096.08 21.9368H1079.45V39H1096.08V21.9368Z" fill="#11112B" />
  </g>
  <g clip-path="url(#clip2_33_4561)">
    <path
      d="M1573.41 5.01265V9.01327H1577.28C1578.98 9.01327 1580.09 10.0892 1580.72 10.7847C1581.23 11.3574 1592.39 24.113 1592.66 24.4485C1592.93 24.7839 1592.93 24.7878 1592.93 25.0006V31.3215C1592.93 31.6113 1592.9 31.9003 1592.84 32.1844C1592.77 32.3679 1592.65 32.5318 1592.5 32.6647C1592.35 32.7976 1592.17 32.8963 1591.98 32.9539C1591.62 33.0002 1591.25 33.0235 1590.88 33.0235L1587 33.0186V37.0193H1608.77V33.0186H1604.67C1604.31 33.0205 1603.94 32.9969 1603.58 32.9483C1603.39 32.8912 1603.21 32.7928 1603.06 32.66C1602.91 32.5272 1602.8 32.3632 1602.72 32.1796C1602.66 31.8955 1602.63 31.6066 1602.63 31.3167V24.9998C1602.61 24.7921 1602.66 24.5828 1602.78 24.4109L1614.85 10.5266C1615.96 9.28293 1616.54 9.01246 1617.99 9.01246H1622V5.01184H1604.06V9.00446H1606.77C1606.91 8.99567 1607.06 9.02906 1607.18 9.10062C1607.31 9.17218 1607.41 9.27891 1607.48 9.40815C1607.55 9.5374 1607.58 9.68372 1607.57 9.82971C1607.56 9.9757 1607.5 10.1152 1607.42 10.2317C1607.36 10.3135 1599.91 19.1458 1599.81 19.2317C1599.72 19.3177 1599.66 19.297 1599.59 19.203C1599.52 19.1088 1592.15 10.2318 1592.15 10.2318C1591.64 9.58948 1592.04 9.00448 1592.65 9.00448H1595.29V5.01186L1573.41 5.01265Z"
      fill="#11112B" />
    <path
      d="M1520.01 5.0127V9.01332H1523.49C1526 9.01332 1526.17 10.4212 1526.17 11.6485V30.3723C1526.17 31.4932 1526.23 33.0314 1524.63 33.0314H1520.35V37.0281H1538.65V33.0314H1534.19C1532.4 33.0314 1532.32 32.2094 1532.3 30.4626V14.4218L1557.45 37.0281H1563.84L1563.5 11.4966C1563.54 9.63118 1563.65 9.00932 1565.57 9.00932H1569.57V5.0127H1550.9V9.00932H1555C1556.88 9.00932 1557.2 9.74164 1557.22 11.4966L1557.45 24.8576L1535.62 5.0127H1520.01Z"
      fill="#11112B" />
    <path
      d="M1437.57 3C1433.64 3 1429.17 3.74454 1425.39 5.45454C1421.87 7.04181 1419 9.59023 1419 13.8161C1418.99 16.0292 1419.83 18.1605 1421.33 19.7727C1422.35 20.7218 1424 22.3337 1428.29 23.2828C1430.21 23.6919 1434.32 24.3505 1438.41 24.7841C1442.5 25.2177 1446.46 25.6024 1448.08 26.0401C1449.37 26.3715 1451.55 26.8216 1451.55 29.2761C1451.55 31.7307 1449.26 32.4668 1448.86 32.6263C1448.46 32.7859 1445.72 34.0542 1440.79 34.0542C1437.52 33.9628 1434.29 33.4021 1431.18 32.3891C1429.34 31.7263 1427.41 30.8549 1425.61 28.6417C1424.89 27.5996 1424.49 26.3638 1424.46 25.0909H1419.99V37.6912H1424.95V35.9854C1424.95 35.8588 1424.98 35.7343 1425.05 35.6247C1425.11 35.5151 1425.2 35.4244 1425.31 35.3618C1425.42 35.2993 1425.54 35.2673 1425.67 35.269C1425.79 35.2708 1425.92 35.3062 1426.02 35.3717C1428.36 36.3964 1430.79 37.1883 1433.28 37.736C1435.89 38.2842 1437.57 38.6812 1440.81 38.6812C1444.23 38.7467 1447.64 38.262 1450.91 37.2454C1453.08 36.6461 1455.11 35.6336 1456.9 34.2627C1457.91 33.4829 1458.73 32.4782 1459.28 31.3276C1459.84 30.177 1460.13 28.912 1460.12 27.6318C1460.13 25.1994 1459.2 22.8575 1457.52 21.1103C1456.59 20.1971 1455.51 19.4516 1454.32 18.9058C1453.05 18.3266 1451.73 17.8624 1450.38 17.5187C1447.8 16.8846 1442.02 16.091 1439.26 15.8129C1436.36 15.5101 1431.33 15.0885 1429.32 14.4625C1428.71 14.2703 1427.46 13.6776 1427.46 12.2253C1427.46 11.1903 1428.03 10.3147 1429.15 9.60699C1430.94 8.48197 1434.53 7.78204 1438.28 7.78204C1441.92 7.73782 1445.52 8.44658 1448.87 9.86426C1449.76 10.2593 1450.61 10.7681 1451.38 11.3784C1452.64 12.4612 1453.51 13.9296 1453.86 15.5588H1457.87V4.59162H1453.4V5.86364C1453.4 6.27273 1453 6.81291 1452.19 6.36701C1450.17 5.31156 1444.51 3.02863 1437.57 3Z"
      fill="#11112B" />
    <path
      d="M1491.32 3C1484.29 3 1476.81 5.45425 1472.59 9.32015C1470.98 10.7969 1469.7 12.5968 1468.82 14.6042C1467.94 16.6115 1467.49 18.7818 1467.5 20.9752C1467.47 23.1778 1467.91 25.3604 1468.79 27.3773C1469.67 29.3942 1470.97 31.1989 1472.59 32.6711C1477.14 36.7906 1483.96 39 1491.32 39C1498.69 39 1505.66 36.8152 1510.1 32.6711C1511.68 31.1644 1512.94 29.3513 1513.8 27.3412C1514.66 25.3311 1515.11 23.1656 1515.12 20.9752C1515.15 18.7871 1514.71 16.6189 1513.84 14.6121C1512.98 12.6054 1511.7 10.8052 1510.1 9.32892C1505.34 4.97619 1499.1 3 1491.32 3ZM1491.32 7.67978C1495.17 7.67978 1498.88 9.07517 1501.37 11.5502C1503.79 13.9474 1505.05 17.3347 1505.05 20.9593C1505.05 24.7556 1503.9 27.832 1501.37 30.3684C1498.84 32.9047 1495.22 34.2627 1491.32 34.2627C1487.45 34.2627 1483.75 32.8761 1481.25 30.3684C1480.06 29.1199 1479.12 27.6459 1478.49 26.0312C1477.87 24.4165 1477.56 22.6928 1477.6 20.9593C1477.6 17.3511 1478.84 13.9515 1481.25 11.5502C1483.75 9.0629 1487.47 7.67978 1491.32 7.67978Z"
      fill="#11112B" />
  </g>
  <defs>
    <clipPath id="clip0_33_4561">
      <rect width="116" height="36" fill="white" transform="translate(753 3)" />
    </clipPath>
    <clipPath id="clip1_33_4561">
      <rect width="166" height="36" fill="white" transform="translate(1061 3)" />
    </clipPath>
    <clipPath id="clip2_33_4561">
      <rect width="203" height="36" fill="white" transform="translate(1419 3)" />
    </clipPath>
  </defs>
</svg>
