<svg width="212" height="212" viewBox="0 0 212 212" fill="none" xmlns="http://www.w3.org/2000/svg">
<circle cx="106" cy="106" r="106" fill="#11112B"/>
<path d="M91.976 186.376L99.3244 187.357L101.148 173.679L93.7996 172.698L93.6036 174.168L99.1689 174.911L98.5418 179.614L93.5645 178.95L93.3685 180.419L98.3459 181.083L97.7371 185.649L92.1719 184.907L91.976 186.376Z" fill="white"/>
<path d="M77.1511 167.335L75.2708 166.553L76.5381 174.531L69.9663 179.271L71.8283 180.045L76.8196 176.275L77.816 182.534L79.678 183.308L78.4183 175.312L84.946 170.575L83.1022 169.809L78.1368 173.568L77.1511 167.335Z" fill="white"/>
<path d="M62.0854 166.791L58.9666 170.777L56.8808 169.144C55.262 167.876 55.1619 166.593 56.1487 165.332C57.0989 164.117 58.3808 163.891 59.9996 165.158L62.0854 166.791ZM54.701 164.198C53.3122 165.973 53.4143 168.313 55.9671 170.312L59.4694 173.054L67.9608 162.202L66.5443 161.093L62.9991 165.624L60.9133 163.99C58.2204 161.882 55.9924 162.548 54.701 164.198Z" fill="white"/>
<path d="M43.5176 158.376L54.3728 149.889L50.2951 144.67L49.1426 145.571L52.1126 149.372L42.41 156.959L43.5176 158.376Z" fill="white"/>
<path d="M34.5146 128.406C30.6982 129.989 29.1725 133.897 30.6641 137.494C32.1482 141.074 35.9986 142.772 39.8149 141.189C43.6313 139.606 45.1495 135.68 43.6654 132.1C42.1737 128.503 38.331 126.822 34.5146 128.406ZM39.1107 139.491C35.9882 140.786 33.2198 139.58 32.1067 136.896C30.9936 134.211 32.0963 131.4 35.2188 130.104C38.323 128.816 41.1097 130.014 42.2228 132.699C43.3359 135.383 42.215 138.203 39.1107 139.491Z" fill="white"/>
<path d="M28.6172 110.626C30.1521 110.479 31.3393 111.258 31.5341 113.285L31.7876 115.922L26.5925 116.422L26.339 113.785C26.1422 111.738 27.0626 110.776 28.6172 110.626ZM25.2887 118.355L39.0047 117.035L38.8326 115.244L33.2242 115.784L33.0161 113.619L38.3104 109.813L38.1042 107.668L32.6891 111.665C31.9561 109.411 30.1908 108.608 28.4394 108.777C26.196 108.992 24.5528 110.7 24.8631 113.927L25.2887 118.355Z" fill="white"/>
<path d="M26.6476 94.9084L31.191 95.667L32.0175 90.7141L33.4799 90.9583L32.6535 95.9112L37.3333 96.6926L38.2574 91.1547L39.7199 91.3988L38.4997 98.7113L24.8891 96.4387L26.1092 89.1263L27.5717 89.3705L26.6476 94.9084Z" fill="white"/>
<path d="M41.683 55.5815L50.5649 61.9896L37.4513 61.4506L36.3991 62.9098L47.5896 70.9836L48.6418 69.5244L39.7439 63.1046L52.8735 63.6553L53.9257 62.196L42.7352 54.1222L41.683 55.5815Z" fill="white"/>
<path d="M67.3502 41.584C64.9144 38.2465 60.7585 37.6831 57.6134 39.98C54.4842 42.2653 53.7388 46.4082 56.1746 49.7457C58.6105 53.0831 62.7823 53.635 65.9115 51.3497C69.0566 49.0527 69.7861 44.9214 67.3502 41.584ZM57.6594 48.6613C55.6664 45.9307 56.1872 42.9555 58.5341 41.2415C60.8809 39.5276 63.8725 39.9377 65.8655 42.6683C67.8468 45.383 67.3377 48.3742 64.9908 50.0882C62.6439 51.8021 59.6407 51.376 57.6594 48.6613Z" fill="white"/>
<path d="M81.9733 42.202L83.8872 41.6324L84.0233 30.0554L90.1582 39.8335L92.0965 39.2775L92.1378 24.9306L90.2755 25.4648L90.5769 37.4922L84.3275 27.1711L82.3892 27.7271L82.4166 39.8742L76.3083 29.4715L74.465 30.0003L81.9733 42.202Z" fill="white"/>
<path d="M126.864 26.8202L119.624 25.2293L116.664 38.7072L123.905 40.2982L124.223 38.85L118.739 37.6451L119.757 33.0108L124.661 34.0884L124.979 32.6402L120.075 31.5626L121.063 27.0635L126.546 28.2684L126.864 26.8202Z" fill="white"/>
<path d="M140.048 47.0341L141.856 47.9701L141.259 39.9147L148.204 35.7402L146.413 34.8133L141.125 38.1531L140.654 31.8327L138.864 30.9058L139.451 38.9787L132.551 43.1539L134.324 44.0717L139.586 40.7404L140.048 47.0341Z" fill="white"/>
<path d="M155.015 48.8348L158.455 45.1235L160.398 46.9251C161.905 48.3234 161.897 49.6109 160.809 50.7852C159.76 51.916 158.464 52.0348 156.957 50.6365L155.015 48.8348ZM162.157 52.0356C163.689 50.3829 163.782 48.0429 161.406 45.8378L158.145 42.8126L148.776 52.9174L150.095 54.1409L154.007 49.9221L155.949 51.7238C158.456 54.0499 160.732 53.5724 162.157 52.0356Z" fill="white"/>
<path d="M172.815 58.7719L161.288 66.3227L164.916 71.8636L166.14 71.062L163.498 67.0262L173.8 60.277L172.815 58.7719Z" fill="white"/>
<path d="M179.284 89.3896C183.219 88.1306 185.066 84.3641 183.88 80.6545C182.7 76.9637 179.005 74.9493 175.069 76.2083C171.134 77.4673 169.293 81.2527 170.473 84.9435C171.659 88.6531 175.348 90.6486 179.284 89.3896ZM175.629 77.9595C178.849 76.9295 181.507 78.3623 182.392 81.1304C183.277 83.8984 181.944 86.6083 178.724 87.6384C175.523 88.6624 172.846 87.2356 171.961 84.4676C171.076 81.6995 172.428 78.9836 175.629 77.9595Z" fill="white"/>
<path d="M183.676 107.6C182.135 107.619 181.017 106.743 180.992 104.707L180.959 102.058L186.178 101.994L186.21 104.643C186.236 106.699 185.238 107.581 183.676 107.6ZM187.639 100.177L173.86 100.345L173.882 102.144L179.516 102.075L179.543 104.25L173.949 107.6L173.975 109.755L179.705 106.225C180.248 108.531 181.94 109.479 183.699 109.458C185.953 109.43 187.733 107.866 187.693 104.624L187.639 100.177Z" fill="white"/>
<path d="M184.38 129.234L186.207 122.049L172.834 118.647L171.007 125.832L172.444 126.198L173.827 120.757L178.426 121.926L177.188 126.793L178.625 127.158L179.863 122.292L184.327 123.427L182.943 128.869L184.38 129.234Z" fill="white"/>
<path d="M166.06 161.361L157.744 154.233L170.767 155.866L171.937 154.5L161.46 145.519L160.29 146.885L168.62 154.026L155.583 152.38L154.412 153.747L164.889 162.727L166.06 161.361Z" fill="white"/>
<path d="M139.313 173.165C141.461 176.694 145.556 177.603 148.882 175.577C152.191 173.561 153.28 169.495 151.131 165.965C148.983 162.436 144.871 161.538 141.562 163.553C138.236 165.58 137.164 169.636 139.313 173.165ZM149.561 166.922C151.319 169.809 150.551 172.731 148.07 174.243C145.588 175.754 142.641 175.096 140.883 172.208C139.135 169.338 139.893 166.399 142.374 164.887C144.856 163.376 147.813 164.051 149.561 166.922Z" fill="white"/>
<path d="M124.793 171.327L122.838 171.735L121.735 183.26L116.438 173.003L114.46 173.395L113.221 187.688L115.122 187.312L115.826 175.301L121.191 186.108L123.169 185.716L124.156 173.609L129.375 184.486L131.256 184.113L124.793 171.327Z" fill="white"/>
<g clip-path="url(#clip0_33_4553)">
<path d="M123.226 84.8934L94.6247 84.8931C93.8083 84.8931 93.0402 85.2131 92.4601 85.7932C91.8793 86.374 91.56 87.1421 91.5596 87.9582L91.56 90.5552C91.5596 91.3707 91.8793 92.1398 92.4598 92.7202C93.0399 93.3003 93.8273 93.6384 94.6428 93.6381L111.346 93.6564L84.8415 120.161C83.6465 121.356 83.6378 123.236 84.8332 124.431L86.6692 126.267C87.8645 127.462 89.8386 127.548 91.0336 126.353L117.633 99.7538L117.604 116.598C117.604 117.414 117.909 118.169 118.489 118.749C119.069 119.329 119.831 119.641 120.647 119.641L123.24 119.638C124.056 119.638 124.822 119.316 125.403 118.736C125.983 118.155 126.302 117.386 126.302 116.57L126.302 87.9691C126.302 87.1505 125.98 86.3788 125.397 85.7993C124.816 85.215 124.044 84.8928 123.226 84.8934Z" fill="white"/>
</g>
<defs>
<clipPath id="clip0_33_4553">
<rect width="56" height="56" fill="white" transform="translate(66 105.598) rotate(-45)"/>
</clipPath>
</defs>
</svg>
