<svg width="140" height="140" viewBox="0 0 140 140" fill="none" xmlns="http://www.w3.org/2000/svg">
<g opacity="0.8" clip-path="url(#clip0_40_5528)">
<path d="M62.5892 139.853L61.5152 139.728C36.9476 136.787 10.4016 111.203 2.35181 82.6897L2.75882 82.554C5.70964 90.1123 17.1964 95.6114 34.2681 97.6594H34.4151L34.449 97.8178C40.0567 117.676 49.9606 132.804 61.6395 139.332L62.5892 139.864V139.853ZM3.44847 84.8509C12.0522 111.871 37.0381 135.734 60.4977 139.163C49.1579 132.328 39.5706 117.438 34.0759 98.0668C18.553 96.1885 7.62032 91.4362 3.44847 84.8509Z" fill="#92DEED"/>
<path d="M41.3908 116.68C31.8939 115.548 21.6508 105.67 18.5417 94.6722L18.9601 94.5591C22.0239 105.41 32.1087 115.152 41.4473 116.261L41.4021 116.691L41.3908 116.68Z" fill="#92DEED"/>
<path d="M50.7181 130.733C32.9228 128.606 13.7029 110.083 7.88037 89.4335L8.29869 89.3203C14.0873 109.812 33.1376 128.199 50.7747 130.303L50.7294 130.733H50.7181Z" fill="#92DEED"/>
<path d="M37.0041 129.964C31.2947 125.788 30.2093 114.066 34.042 97.8179L34.4603 97.9197C30.6729 113.987 31.7017 125.551 37.2642 129.613L37.0154 129.964H37.0041Z" fill="#92DEED"/>
<path d="M34.5394 98.1232L34.2228 98.0893C16.9814 96.03 5.37036 90.4291 2.36301 82.7123C-1.98973 67.29 -0.237324 53.4857 7.1793 44.8071C13.0131 37.9842 21.9899 34.9066 32.4478 36.1625L32.6852 36.1965L32.6287 36.4341C28.1742 55.5677 28.8412 77.9373 34.4489 97.8177L34.5394 98.1232ZM27.9594 36.3209C19.5479 36.3209 12.3913 39.3646 7.50716 45.09C0.192297 53.6554 -1.53749 67.3126 2.77002 82.5765C5.69823 90.067 17.0606 95.5434 33.9515 97.6254C28.4229 77.8355 27.7672 55.6129 32.1652 36.5699C30.7406 36.4114 29.3387 36.3322 27.9707 36.3322L27.9594 36.3209Z" fill="#92DEED"/>
<path d="M18.5417 94.6608C16.8571 88.6978 17.5468 83.3458 20.4184 79.974C22.6909 77.3149 26.1731 76.1155 30.2432 76.6021L30.198 77.0321C26.2749 76.5682 22.917 77.711 20.7463 80.2568C17.9651 83.5155 17.3093 88.7204 18.9487 94.5363L18.5304 94.6495L18.5417 94.6608Z" fill="#92DEED"/>
<path d="M7.88025 89.4334C4.72593 78.2768 6.00349 68.2744 11.3851 61.9833C15.6134 57.0273 22.1256 54.7983 29.7118 55.7148L29.6666 56.1447C22.2273 55.2509 15.8509 57.4346 11.7129 62.2661C6.43311 68.4441 5.18947 78.3107 8.29857 89.3315L7.88025 89.4447V89.4334Z" fill="#92DEED"/>
<path d="M34.1324 98.0439C16.4388 86.1972 4.38683 71.3746 1.07422 57.378L1.49253 57.2761C4.78253 71.1709 16.7667 85.8917 34.3699 97.6932L34.1324 98.0439Z" fill="#92DEED"/>
<path d="M34.0758 97.9988C20.5428 79.7365 12.4139 58.8604 11.7808 40.7451H12.2104C12.8435 58.7698 20.9385 79.5441 34.4263 97.7499L34.0871 98.0101L34.0758 97.9988Z" fill="#92DEED"/>
<path d="M49.3613 98.9379C44.1041 98.9379 39.0165 98.655 34.2228 98.0779H34.0758L34.0419 97.9195C28.4116 77.9713 27.7446 55.5224 32.2217 36.3209L32.2669 36.1285L32.4591 36.1512C57.0267 39.0931 83.5727 64.6762 91.6225 93.1899L91.679 93.4049L91.4642 93.4614C77.6372 97.0596 62.9396 98.9379 49.3726 98.9379H49.3613ZM34.415 97.6706C51.4529 99.6847 72.1086 98.0214 91.1363 93.0994C83.0753 64.9025 56.891 39.6249 32.5948 36.6038C28.1968 55.6468 28.8638 77.8921 34.415 97.6706Z" fill="#92DEED"/>
<path d="M52.6853 98.7456C49.6214 87.8945 39.5366 78.1524 30.198 77.0435L30.2432 76.6135C39.7401 77.745 49.9832 87.623 53.0923 98.6324L52.674 98.7456H52.6853Z" fill="#92DEED"/>
<path d="M72.1425 97.1161C66.3539 76.6247 47.3036 58.2379 29.6665 56.1333L29.7117 55.7034C47.5071 57.8306 66.727 76.3532 72.5495 97.003L72.1312 97.1161H72.1425Z" fill="#92DEED"/>
<path d="M34.4603 97.9196L34.042 97.8177C37.8521 81.6373 46.094 62.7413 56.6536 45.9839L57.0154 46.2102C46.4784 62.9337 38.2591 81.7844 34.4603 97.9196Z" fill="#92DEED"/>
<path d="M66.0034 140C64.545 140 63.0413 139.909 61.515 139.728L61.4359 139.706C49.6665 133.132 39.6835 117.902 34.0419 97.9309L33.9514 97.6254L34.268 97.6593C51.3963 99.7073 72.199 98.0327 91.3398 93.0541L91.5433 92.9976L91.5998 93.2012C95.9412 108.601 94.1888 122.405 86.7722 131.084C81.7977 136.911 74.528 140 65.9921 140H66.0034ZM61.6055 139.31C71.9051 140.52 80.7349 137.511 86.4557 130.801C93.7366 122.269 95.489 108.691 91.2493 93.518C72.2329 98.4401 51.5998 100.115 34.5393 98.1232C40.1583 117.811 50.0057 132.804 61.6055 139.31Z" fill="#92DEED"/>
<path d="M43.1317 116.782C42.5664 116.782 41.9785 116.748 41.3906 116.68L41.4358 116.25C45.3477 116.714 48.7168 115.571 50.8875 113.025C53.6687 109.766 54.3245 104.561 52.6851 98.7455L53.1035 98.6323C54.788 104.595 54.0984 109.947 51.2267 113.308C49.2934 115.582 46.4556 116.782 43.143 116.782H43.1317Z" fill="#92DEED"/>
<path d="M53.9741 130.925C52.9113 130.925 51.826 130.857 50.718 130.733L50.7632 130.303C58.2138 131.197 64.579 129.013 68.7169 124.182C73.9967 118.004 75.2403 108.137 72.1312 97.1276L72.5496 97.0144C75.7039 108.171 74.4263 118.173 69.0448 124.464C65.4269 128.696 60.1584 130.937 53.9628 130.937L53.9741 130.925Z" fill="#92DEED"/>
<path d="M92.6739 118.773C73.1487 117.449 51.8146 109.891 34.1323 98.0441L34.3697 97.6934C51.9842 109.495 73.2505 117.019 92.7078 118.343L92.6739 118.773Z" fill="#92DEED"/>
<path d="M81.9106 135.361C65.0536 129.884 47.6201 116.261 34.0757 97.9988L34.4149 97.7385C47.9027 115.933 65.2571 129.5 82.035 134.942L81.8993 135.349L81.9106 135.361Z" fill="#92DEED"/>
<path d="M66.0035 140C64.8729 140 63.731 139.943 62.5552 139.841L62.5891 139.864L61.4699 139.728C52.6061 138.665 43.1996 134.625 34.2567 128.04C32.1086 126.377 29.4065 124.17 27.5298 122.541C26.6931 121.828 25.7095 120.855 24.8503 119.995C24.579 119.723 24.3189 119.475 24.0815 119.237C22.0351 117.257 18.9373 113.67 17.2415 111.498C15.9752 109.879 14.3246 107.537 12.1765 104.335C11.566 103.419 10.8763 102.231 10.2658 101.167L9.89269 100.533C9.20304 99.3566 8.32118 97.6933 7.69936 96.4034C6.87404 94.7061 5.8226 92.3639 5.07641 90.5875C4.01366 87.9737 3.09789 85.3147 2.36301 82.7009C-1.98973 67.29 -0.237324 53.4857 7.1793 44.8071C13.0131 37.9842 21.9899 34.9066 32.4478 36.1625C57.0154 39.1044 83.5614 64.6875 91.6112 93.2012C95.9526 108.601 94.2002 122.405 86.7836 131.084C81.809 136.911 74.5394 140 66.0035 140ZM61.6055 139.31C71.9051 140.52 80.735 137.511 86.4557 130.801C93.7706 122.235 95.5004 108.567 91.1929 93.3144C83.1883 64.9591 56.8119 39.5117 32.3913 36.5925C22.0691 35.3592 13.2279 38.3802 7.49586 45.09C0.192297 53.6554 -1.53749 67.3126 2.77002 82.5765C3.5049 85.1789 4.40937 87.8153 5.47212 90.4177C6.2183 92.1942 7.26974 94.5251 8.08376 96.211C8.70558 97.4896 9.57613 99.1416 10.2658 100.318L10.6389 100.952C11.2494 102.004 11.9277 103.192 12.5383 104.098C14.6751 107.288 16.3257 109.619 17.5807 111.237C19.2652 113.41 22.3517 116.963 24.3868 118.943C24.6355 119.18 24.8955 119.441 25.1669 119.701C26.0261 120.549 27.0097 121.511 27.835 122.224C29.7118 123.842 32.4026 126.049 34.5394 127.701C43.0753 133.98 52.0295 137.929 60.5202 139.163C49.1578 132.317 39.5479 117.37 34.0645 97.9309L34.4829 97.8177C40.0792 117.653 49.9831 132.781 61.6394 139.31H61.6055Z" fill="#92DEED"/>
<path d="M62.5892 139.853L61.5152 139.728C36.9476 136.787 10.4016 111.203 2.35181 82.6897L2.75882 82.554C5.70964 90.1123 17.1964 95.6114 34.2681 97.6594H34.4151L34.449 97.8178C40.0567 117.676 49.9606 132.804 61.6395 139.332L62.5892 139.864V139.853ZM3.44847 84.8509C12.0522 111.871 37.0381 135.734 60.4977 139.163C49.1579 132.328 39.5706 117.438 34.0759 98.0668C18.553 96.1885 7.62032 91.4362 3.44847 84.8509Z" fill="#92DEED"/>
<path d="M16.0205 109.732C15.93 109.732 15.8848 109.699 15.8509 109.676C15.817 109.642 15.6926 109.529 15.7717 109.314L16.1788 109.461C16.1788 109.461 16.1788 109.404 16.1448 109.359C16.1109 109.314 16.0657 109.303 16.0544 109.303C16.3596 109.303 18.5869 108.431 34.1211 97.6934L34.3585 98.0441C19.1409 108.567 16.5858 109.732 16.0092 109.732H16.0205Z" fill="#92DEED"/>
<path d="M34.2681 128.04C34.1098 127.927 33.9629 127.814 33.8046 127.701C32.7531 126.92 31.4417 125.924 30.4807 125.098C30.3224 124.963 30.1528 124.815 29.9719 124.668C29.6667 124.408 29.3614 124.148 29.0674 123.888C28.4004 123.311 27.6881 122.7 27.1228 122.19C26.3654 121.5 25.4496 120.606 24.6469 119.814L23.9911 119.169C21.2664 116.522 18.3382 112.878 17.2416 111.509C15.6022 109.472 14.9465 108.488 12.1765 104.347C11.5434 103.396 10.8425 102.186 10.2206 101.111L9.79102 100.364C8.83002 98.7118 7.73336 96.4715 6.87412 94.7176C6.67061 94.2877 6.4558 93.8125 6.22969 93.3033C5.82268 92.3981 5.43828 91.4929 5.06519 90.5877L5.46089 90.418C5.63048 90.814 5.82268 91.2553 6.01487 91.7079C6.21838 92.1831 6.42188 92.6696 6.62539 93.1336C11.7582 104.528 19.7854 115.254 29.3275 123.548C29.4971 123.695 29.6667 123.842 29.8249 123.978C29.9719 124.103 30.1076 124.227 30.2433 124.34C31.4869 125.393 32.7531 126.388 34.0307 127.361C34.189 127.486 34.3473 127.599 34.4942 127.701L34.2455 128.052L34.2681 128.04Z" fill="#92DEED"/>
<path d="M2.40824 82.8708L2.36301 82.6898C-1.98973 67.2901 -0.237324 53.4858 7.1793 44.8073C13.0131 37.9843 21.9899 34.9067 32.4478 36.1626H32.5383L32.5948 36.2418C38.1007 43.2232 44.2059 47.0703 50.1979 47.6247C53.1714 44.4678 57.5693 43.0648 62.6683 43.6758L63.1883 43.7323L62.7813 44.0492C58.8808 47.0929 54.6637 48.4054 50.3675 48.066C50.2771 48.1565 50.1979 48.2583 50.1075 48.3602C46.4218 52.6712 45.5626 59.5507 47.7333 67.2448L47.7785 67.3806L47.6654 67.4711C38.2251 74.8259 21.3794 80.5739 2.61174 82.8368L2.43085 82.8595L2.40824 82.8708ZM27.9707 36.321C19.5592 36.321 12.4026 39.3648 7.51847 45.0901C0.214909 53.6216 -1.52619 67.2109 2.7135 82.3956C21.2663 80.1326 37.8859 74.4751 47.2584 67.2335C45.099 59.4601 46.0035 52.4901 49.757 48.0886C49.7796 48.066 49.7909 48.0433 49.8136 48.0207C43.8441 47.3531 37.7842 43.4834 32.3008 36.57C30.8198 36.4002 29.3726 36.3097 27.9594 36.3097L27.9707 36.321ZM50.7519 47.67C54.6411 47.8963 58.4964 46.7082 62.0691 44.0492C57.4789 43.6192 53.5106 44.8978 50.7519 47.67Z" fill="#92DEED"/>
<path d="M19.8419 79.4423C16.6197 68.0255 17.9199 57.7854 23.4258 51.3472C27.756 46.2781 34.4151 44.0038 42.1822 44.9316L42.137 45.3616C34.5169 44.4451 27.9934 46.6742 23.7537 51.6301C18.3495 57.9552 17.072 68.0594 20.2602 79.3291L19.8419 79.4423Z" fill="#92DEED"/>
<path d="M35.3308 74.2262C32.8549 65.4458 33.8611 57.5592 38.0895 52.6033C41.4247 48.6996 46.5462 46.9458 52.5383 47.6586L52.4931 48.0886C46.6593 47.3984 41.6621 49.0957 38.4286 52.8862C34.2907 57.729 33.3184 65.4684 35.7492 74.113L35.3308 74.2262Z" fill="#92DEED"/>
<path d="M38.6659 50.6683C30.7179 50.6683 21.4245 47.3643 11.8711 40.9035L12.1085 40.5527C27.8462 51.1888 42.8151 53.2029 52.1537 45.9273L52.4138 46.2668C48.6263 49.22 43.9457 50.6683 38.6659 50.6683Z" fill="#92DEED"/>
<path d="M91.758 93.7331L91.2831 93.4276C87.3035 90.9044 85.1215 87.8041 84.9519 84.4549C84.884 82.95 85.2232 81.4111 85.9468 79.861C79.3668 66.6564 69.1463 54.9228 57.7048 46.9684C49.3724 50.2271 40.1808 46.5611 32.2441 36.5021L31.9163 36.0947L32.4363 36.1513C40.9157 37.1696 49.6325 40.881 57.7501 46.4819C59.3668 45.8256 60.9496 44.9091 62.4872 43.7097L62.555 43.6531H62.6455C75.1271 45.158 88.6037 58.1476 92.6851 72.6194L92.7303 72.7552L92.6172 72.8457C89.6664 75.154 87.5748 77.5188 86.4216 79.8497C88.5584 84.1607 90.3108 88.6301 91.5997 93.1787L91.7467 93.7218L91.758 93.7331ZM86.2068 80.3588C85.6076 81.7393 85.325 83.1084 85.3928 84.4435C85.5398 87.4986 87.4844 90.3726 91.0457 92.76C89.8134 88.5396 88.1853 84.387 86.2181 80.3702L86.2068 80.3588ZM58.191 46.776C69.5194 54.7192 79.6268 66.3283 86.2068 79.3858C87.3939 77.1115 89.429 74.8258 92.2554 72.6081C88.174 58.3739 74.9575 45.6332 62.702 44.117C61.2436 45.2485 59.7286 46.1424 58.191 46.7874V46.776ZM32.9225 36.6378C40.5652 46.1085 49.3272 49.6048 57.2865 46.6629C49.4742 41.3109 41.0966 37.7241 32.9225 36.6378Z" fill="#92DEED"/>
<path d="M85.6077 87.3063C79.6834 66.3283 60.1809 47.5115 42.1255 45.3504L42.1707 44.9204C60.3844 47.0929 80.0452 66.0568 86.0147 87.1818L85.5964 87.2949L85.6077 87.3063Z" fill="#92DEED"/>
<path d="M85.8338 80.2684C81.2888 64.1785 66.3312 49.7406 52.4929 48.0887L52.5381 47.6587C66.5348 49.3333 81.6619 63.907 86.2408 80.1439L85.8225 80.2571L85.8338 80.2684Z" fill="#92DEED"/>
<path d="M64.251 53.8593C63.3804 53.8593 62.5664 53.7235 61.8202 53.452C59.2651 52.5242 57.4675 49.9896 56.6309 46.1425L57.0492 46.052C57.8519 49.752 59.5591 52.1734 61.9672 53.056C65.2007 54.2327 69.6665 52.7052 74.8672 48.6544L75.1272 48.9939C70.9893 52.2187 67.2809 53.8706 64.251 53.8706V53.8593Z" fill="#92DEED"/>
<path d="M66.0034 140C64.5449 140 63.0412 139.909 61.515 139.728L61.3228 139.706V139.513C61.8315 119.61 67.7897 103.317 77.2413 95.9508L77.3092 95.8943H77.3996C82.329 96.494 86.58 95.1588 89.4629 92.1377C86.6478 89.8747 85.0989 87.2609 84.9632 84.4662C84.771 80.5738 87.3374 76.4438 92.3685 72.5175L92.6173 72.3252L92.7077 72.6307C94.9237 80.4607 94.0192 87.4872 90.243 91.9114C90.1978 91.968 90.1413 92.0245 90.0961 92.0811C90.537 92.4206 91.0231 92.7487 91.5206 93.0768L91.5884 93.1221L91.611 93.2013C95.9525 108.601 94.2001 122.405 86.7835 131.084C81.8089 136.911 74.5393 140 66.0034 140ZM61.7637 139.321C71.9954 140.487 80.7688 137.477 86.4669 130.801C93.7705 122.247 95.5003 108.612 91.2267 93.3937C90.7292 93.0768 90.2543 92.7374 89.8021 92.3979C86.84 95.5209 82.4872 96.9126 77.4449 96.3355C68.1515 103.634 62.3064 119.678 61.7637 139.321ZM92.3798 73.0607C87.6314 76.8286 85.2233 80.7662 85.3928 84.4435C85.5172 87.1138 87.0209 89.6258 89.7569 91.8096C89.8134 91.753 89.8699 91.6851 89.9152 91.6285C93.5443 87.3741 94.4375 80.6191 92.3798 73.0494V73.0607Z" fill="#92DEED"/>
<path d="M67.0095 121.896C65.9242 121.896 64.8162 121.828 63.6743 121.692L63.7195 121.262C71.3397 122.167 77.8631 119.938 82.1028 114.994C87.507 108.669 88.7845 98.5758 85.5963 87.2948L86.0146 87.1816C89.2368 98.5984 87.9366 108.838 82.4307 115.277C78.7337 119.61 73.3408 121.896 67.0095 121.896Z" fill="#92DEED"/>
<path d="M71.5999 106.87C70.7632 106.87 69.904 106.813 69.0334 106.711L69.0787 106.281C74.9125 106.983 79.9096 105.274 83.1431 101.484C87.281 96.641 88.2533 88.9016 85.8226 80.2569L86.2409 80.1438C88.7169 88.9242 87.7107 96.8107 83.4823 101.767C80.6332 105.105 76.4727 106.87 71.5999 106.87Z" fill="#92DEED"/>
<path d="M92.5042 118.683C83.3125 105.218 83.4934 92.7487 93.0129 85.3374L93.273 85.6769C83.9683 92.9297 83.81 105.184 92.8547 118.445L92.5042 118.683Z" fill="#92DEED"/>
<path d="M47.3941 67.6748L47.3036 67.3693C45.099 59.5394 45.9922 52.5128 49.7683 48.0886C49.8135 48.0321 49.8701 47.9755 49.9153 47.9189C49.4744 47.5795 48.9882 47.2513 48.4908 46.9232L48.4229 46.8779L48.4003 46.7987C44.0589 31.3991 45.8113 17.5948 53.2279 8.91623C59.0504 2.09331 68.0272 -0.97304 78.4851 0.28292L78.6773 0.30555V0.497905C78.1685 20.4009 72.2104 36.6945 62.7587 44.0605L62.6909 44.1171H62.6004C57.6711 43.5174 53.4201 44.8526 50.5371 47.8736C53.3523 50.1366 54.9012 52.7504 55.0368 55.5452C55.229 59.4375 52.6626 63.5675 47.6315 67.4938L47.3828 67.6861L47.3941 67.6748ZM50.2545 48.1791C50.1979 48.2357 50.1527 48.3036 50.0962 48.3602C46.467 52.6146 45.5739 59.3696 47.6315 66.9393C52.38 63.1715 54.7881 59.2339 54.6185 55.5565C54.4942 52.8862 52.9905 50.3742 50.2545 48.1905V48.1791ZM48.7847 46.6064C49.2822 46.9232 49.757 47.2626 50.2092 47.6021C53.1714 44.4792 57.5241 43.0874 62.5665 43.6645C71.8599 36.3663 77.705 20.3217 78.2477 0.678944C68.0159 -0.497812 59.2426 2.52328 53.5445 9.19911C46.2409 17.7532 44.5111 31.3877 48.7847 46.6064Z" fill="#92DEED"/>
<path d="M52.4138 46.2669L52.1538 45.9274C61.4924 38.6519 63.6066 23.3202 57.8293 4.91072L58.2363 4.78625C64.0701 23.3654 61.8994 38.8782 52.4138 46.2669Z" fill="#92DEED"/>
<path d="M92.3799 73.0607L92.2894 72.7552C88.2419 58.4305 74.935 45.588 62.6116 44.1057L62.0916 44.0491L62.4986 43.7323C71.8598 36.4342 77.7501 20.2764 78.2476 0.497868V0.260254L78.485 0.282884C103.053 3.22477 129.599 28.8079 137.648 57.3216L137.716 57.5592L137.467 57.5932C118.768 59.8448 102.001 65.5589 92.6286 72.8683L92.3799 73.0607ZM63.1656 43.7436C75.4098 45.5088 88.4906 58.1702 92.6173 72.3252C102.058 65.095 118.666 59.4488 137.174 57.1858C129.112 29.0116 102.951 3.77921 78.6772 0.735482C78.1345 20.2538 72.3572 36.2645 63.1656 43.7436Z" fill="#92DEED"/>
<path d="M75.1158 48.9825L74.8557 48.643C84.2395 41.3336 94.6409 26.9296 102.679 10.1156L103.064 10.2966C95.0027 27.1559 84.5561 41.6164 75.1158 48.9712V48.9825Z" fill="#92DEED"/>
<path d="M85.8338 59.313L85.5737 58.9736C94.9802 51.6415 109.316 40.9715 123.912 30.4373L124.16 30.788C109.576 41.3109 95.2515 51.9809 85.8338 59.313Z" fill="#92DEED"/>
<path d="M112.041 104.12C110.582 104.12 109.079 104.03 107.552 103.849H107.462L107.405 103.769C101.899 96.7995 95.7942 92.9411 89.8022 92.3866C86.8287 95.5435 82.4308 96.9352 77.3318 96.3356L76.8118 96.279L77.2188 95.9622C81.1193 92.9184 85.3477 91.6059 89.6326 91.9454C89.723 91.8548 89.8022 91.753 89.8926 91.6512C93.5783 87.3402 94.4375 80.4607 92.2668 72.7665L92.2216 72.6307L92.3347 72.5402C101.775 65.1855 118.621 59.4375 137.388 57.1745L137.569 57.1519L137.614 57.3329C141.956 72.7326 140.204 86.5368 132.787 95.2154C127.812 101.043 120.543 104.132 112.007 104.132L112.041 104.12ZM107.688 103.43C117.965 104.641 126.772 101.62 132.493 94.9212C139.785 86.3897 141.526 72.8004 137.275 57.6158C118.722 59.8788 102.103 65.5362 92.7304 72.7778C94.8898 80.5512 93.9853 87.5212 90.2318 91.9227C90.2092 91.9454 90.1979 91.968 90.1752 91.9793C96.1447 92.6469 102.205 96.5166 107.688 103.43ZM77.931 95.9622C82.5212 96.3808 86.4896 95.1135 89.2482 92.3414C85.3477 92.1038 81.5037 93.3031 77.931 95.9622Z" fill="#92DEED"/>
<path d="M93.273 85.677L93.0129 85.3375C102.476 77.9602 119.582 76.8853 138.79 82.4748L138.666 82.8935C119.593 77.3492 102.634 78.3901 93.273 85.6883V85.677Z" fill="#92DEED"/>
<path d="M86.6705 95.7585L86.2634 95.6227C86.433 94.9891 86.4896 93.982 86.4217 92.6356C86.3539 91.2891 86.1617 90.3047 85.913 88.9582C85.7547 88.0983 85.4946 87.0573 85.2685 86.3331C84.7598 84.6811 84.0814 82.7463 83.5614 81.3885C83.3918 80.9472 81.8089 77.2812 80.6218 75.2445C79.6495 73.5698 78.225 71.2729 77.0831 69.5304C76.5291 68.6818 75.7264 67.6182 75.0141 66.7017C74.0984 65.5023 73.3861 64.631 72.8547 64.0313C70.9441 61.8928 69.4065 60.2521 68.2759 59.1433C67.6314 58.5096 66.7044 57.6384 65.9582 57.0161L65.2911 56.4616C64.7372 55.9977 64.1379 55.4885 63.6292 55.0925C63.1317 54.6965 62.476 54.2213 61.8994 53.7913L61.3454 53.384C61.3454 53.384 58.519 51.302 54.9011 49.6274C54.0079 49.2201 51.7242 48.2243 49.7117 47.9867C49.3725 47.9415 49.2256 47.9415 49.0786 47.9528L49.0447 47.5228C49.3273 47.4889 50.3448 47.3078 51.5885 46.3347C54.4828 44.0831 58.3041 43.1666 62.6343 43.6757C75.1159 45.1693 88.5924 58.1589 92.6738 72.6307C95.2403 81.7053 93.6235 89.5692 88.3663 93.6652C87.9254 94.0386 87.6654 94.2536 87.3375 94.6609C86.8853 95.2041 86.7157 95.5774 86.6478 95.7585H86.6705ZM50.2431 47.6246C52.1877 47.9528 54.2567 48.8467 55.0933 49.2314C58.7451 50.9286 61.5828 53.0219 61.6054 53.0445L62.1594 53.4519C62.736 53.8818 63.3918 54.357 63.9005 54.7531C64.4093 55.1491 65.0085 55.6583 65.5738 56.1335L66.2295 56.6879C66.987 57.3216 67.9254 58.2041 68.5698 58.8378C69.7004 59.9466 71.2493 61.5986 73.1713 63.7372C73.714 64.3482 74.4262 65.2307 75.3533 66.4414C76.0656 67.3693 76.8683 68.4329 77.4336 69.3041C78.5868 71.0579 80.0113 73.3662 80.9836 75.0408C82.1933 77.1341 83.7762 80.7775 83.9458 81.2527C84.4658 82.6105 85.1442 84.5567 85.6642 86.22C85.8903 86.9554 86.1504 88.0191 86.3087 88.8677C86.5687 90.2594 86.7609 91.2551 86.8287 92.6356C86.874 93.405 86.874 94.0839 86.8287 94.6383C86.8853 94.5591 86.9418 94.4799 87.0096 94.4007C87.3714 93.9594 87.6541 93.7218 88.0837 93.3597C93.2165 89.3542 94.7767 81.66 92.2555 72.7552C88.208 58.4304 74.9011 45.588 62.5777 44.1057C58.3607 43.5965 54.6411 44.4904 51.8372 46.6742C51.2267 47.1381 50.6727 47.4436 50.2092 47.6246H50.2431Z" fill="#92DEED"/>
<path d="M2.40824 82.8708L2.36301 82.6898C-1.98973 67.2901 -0.237324 53.4858 7.1793 44.8073C13.0131 37.9843 21.9899 34.9067 32.4478 36.1626H32.5383L32.5948 36.2418C38.1007 43.2232 44.2059 47.0703 50.1979 47.6247C53.1714 44.4678 57.5693 43.0648 62.6683 43.6758L63.1883 43.7323L62.7813 44.0492C58.8808 47.0929 54.6637 48.4054 50.3675 48.066C50.2771 48.1565 50.1979 48.2583 50.1075 48.3602C46.4218 52.6712 45.5626 59.5507 47.7333 67.2448L47.7785 67.3806L47.6654 67.4711C38.2251 74.8259 21.3794 80.5739 2.61174 82.8368L2.43085 82.8595L2.40824 82.8708ZM27.9707 36.321C19.5592 36.321 12.4026 39.3648 7.51847 45.0901C0.214909 53.6216 -1.52619 67.2109 2.7135 82.3956C21.2663 80.1326 37.8859 74.4751 47.2584 67.2335C45.099 59.4601 46.0035 52.4901 49.757 48.0886C49.7796 48.066 49.7909 48.0433 49.8136 48.0207C43.8441 47.3531 37.7842 43.4834 32.3008 36.57C30.8198 36.4002 29.3726 36.3097 27.9594 36.3097L27.9707 36.321ZM50.7519 47.67C54.6411 47.8963 58.4964 46.7082 62.0691 44.0492C57.4789 43.6192 53.5106 44.8978 50.7519 47.67Z" fill="#92DEED"/>
<path d="M19.8419 79.4423C16.6197 68.0255 17.9199 57.7854 23.4258 51.3472C27.756 46.2781 34.4151 44.0038 42.1822 44.9316L42.137 45.3616C34.5169 44.4451 27.9934 46.6742 23.7537 51.6301C18.3495 57.9552 17.072 68.0594 20.2602 79.3291L19.8419 79.4423Z" fill="#92DEED"/>
<path d="M35.3308 74.2262C32.8549 65.4458 33.8611 57.5592 38.0895 52.6033C41.4247 48.6996 46.5462 46.9458 52.5383 47.6586L52.4931 48.0886C46.6593 47.3984 41.6621 49.0957 38.4286 52.8862C34.2907 57.729 33.3184 65.4684 35.7492 74.113L35.3308 74.2262Z" fill="#92DEED"/>
<path d="M38.6659 50.6683C30.7179 50.6683 21.4245 47.3643 11.8711 40.9035L12.1085 40.5527C27.8462 51.1888 42.8151 53.2029 52.1537 45.9273L52.4138 46.2668C48.6263 49.22 43.9457 50.6683 38.6659 50.6683Z" fill="#92DEED"/>
<path d="M91.758 93.7331L91.2831 93.4276C87.3035 90.9044 85.1215 87.8041 84.9519 84.4549C84.884 82.95 85.2232 81.4111 85.9468 79.861C79.3668 66.6564 69.1463 54.9228 57.7048 46.9684C49.3724 50.2271 40.1808 46.5611 32.2441 36.5021L31.9163 36.0947L32.4363 36.1513C40.9157 37.1696 49.6325 40.881 57.7501 46.4819C59.3668 45.8256 60.9496 44.9091 62.4872 43.7097L62.555 43.6531H62.6455C75.1271 45.158 88.6037 58.1476 92.6851 72.6194L92.7303 72.7552L92.6172 72.8457C89.6664 75.154 87.5748 77.5188 86.4216 79.8497C88.5584 84.1607 90.3108 88.6301 91.5997 93.1787L91.7467 93.7218L91.758 93.7331ZM86.2068 80.3588C85.6076 81.7393 85.325 83.1084 85.3928 84.4435C85.5398 87.4986 87.4844 90.3726 91.0457 92.76C89.8134 88.5396 88.1853 84.387 86.2181 80.3702L86.2068 80.3588ZM58.191 46.776C69.5194 54.7192 79.6268 66.3283 86.2068 79.3858C87.3939 77.1115 89.429 74.8258 92.2554 72.6081C88.174 58.3739 74.9575 45.6332 62.702 44.117C61.2436 45.2485 59.7286 46.1424 58.191 46.7874V46.776ZM32.9225 36.6378C40.5652 46.1085 49.3272 49.6048 57.2865 46.6629C49.4742 41.3109 41.0966 37.7241 32.9225 36.6378Z" fill="#92DEED"/>
<path d="M85.6077 87.3063C79.6834 66.3283 60.1809 47.5115 42.1255 45.3504L42.1707 44.9204C60.3844 47.0929 80.0452 66.0568 86.0147 87.1818L85.5964 87.2949L85.6077 87.3063Z" fill="#92DEED"/>
<path d="M85.8338 80.2684C81.2888 64.1785 66.3312 49.7406 52.4929 48.0887L52.5381 47.6587C66.5348 49.3333 81.6619 63.907 86.2408 80.1439L85.8225 80.2571L85.8338 80.2684Z" fill="#92DEED"/>
<path d="M64.251 53.8593C63.3804 53.8593 62.5664 53.7235 61.8202 53.452C59.2651 52.5242 57.4675 49.9896 56.6309 46.1425L57.0492 46.052C57.8519 49.752 59.5591 52.1734 61.9672 53.056C65.2007 54.2327 69.6665 52.7052 74.8672 48.6544L75.1272 48.9939C70.9893 52.2187 67.2809 53.8706 64.251 53.8706V53.8593Z" fill="#92DEED"/>
<path d="M66.0034 140C64.5449 140 63.0412 139.909 61.515 139.728L61.3228 139.706V139.513C61.8315 119.61 67.7897 103.317 77.2413 95.9508L77.3092 95.8943H77.3996C82.329 96.494 86.58 95.1588 89.4629 92.1377C86.6478 89.8747 85.0989 87.2609 84.9632 84.4662C84.771 80.5738 87.3374 76.4438 92.3685 72.5175L92.6173 72.3252L92.7077 72.6307C94.9237 80.4607 94.0192 87.4872 90.243 91.9114C90.1978 91.968 90.1413 92.0245 90.0961 92.0811C90.537 92.4206 91.0231 92.7487 91.5206 93.0768L91.5884 93.1221L91.611 93.2013C95.9525 108.601 94.2001 122.405 86.7835 131.084C81.8089 136.911 74.5393 140 66.0034 140ZM61.7637 139.321C71.9954 140.487 80.7688 137.477 86.4669 130.801C93.7705 122.247 95.5003 108.612 91.2267 93.3937C90.7292 93.0768 90.2543 92.7374 89.8021 92.3979C86.84 95.5209 82.4872 96.9126 77.4449 96.3355C68.1515 103.634 62.3064 119.678 61.7637 139.321ZM92.3798 73.0607C87.6314 76.8286 85.2233 80.7662 85.3928 84.4435C85.5172 87.1138 87.0209 89.6258 89.7569 91.8096C89.8134 91.753 89.8699 91.6851 89.9152 91.6285C93.5443 87.3741 94.4375 80.6191 92.3798 73.0494V73.0607Z" fill="#92DEED"/>
<path d="M67.0095 121.896C65.9242 121.896 64.8162 121.828 63.6743 121.692L63.7195 121.262C71.3397 122.167 77.8631 119.938 82.1028 114.994C87.507 108.669 88.7845 98.5758 85.5963 87.2948L86.0146 87.1816C89.2368 98.5984 87.9366 108.838 82.4307 115.277C78.7337 119.61 73.3408 121.896 67.0095 121.896Z" fill="#92DEED"/>
<path d="M71.5999 106.87C70.7632 106.87 69.904 106.813 69.0334 106.711L69.0787 106.281C74.9125 106.983 79.9096 105.274 83.1431 101.484C87.281 96.641 88.2533 88.9016 85.8226 80.2569L86.2409 80.1438C88.7169 88.9242 87.7107 96.8107 83.4823 101.767C80.6332 105.105 76.4727 106.87 71.5999 106.87Z" fill="#92DEED"/>
<path d="M92.5042 118.683C83.3125 105.218 83.4934 92.7487 93.0129 85.3374L93.273 85.6769C83.9683 92.9297 83.81 105.184 92.8547 118.445L92.5042 118.683Z" fill="#92DEED"/>
<path d="M47.3941 67.6748L47.3036 67.3693C45.099 59.5394 45.9922 52.5128 49.7683 48.0886C49.8135 48.0321 49.8701 47.9755 49.9153 47.9189C49.4744 47.5795 48.9882 47.2513 48.4908 46.9232L48.4229 46.8779L48.4003 46.7987C44.0589 31.3991 45.8113 17.5948 53.2279 8.91623C59.0504 2.09331 68.0272 -0.97304 78.4851 0.28292L78.6773 0.30555V0.497905C78.1685 20.4009 72.2104 36.6945 62.7587 44.0605L62.6909 44.1171H62.6004C57.6711 43.5174 53.4201 44.8526 50.5371 47.8736C53.3523 50.1366 54.9012 52.7504 55.0368 55.5452C55.229 59.4375 52.6626 63.5675 47.6315 67.4938L47.3828 67.6861L47.3941 67.6748ZM50.2545 48.1791C50.1979 48.2357 50.1527 48.3036 50.0962 48.3602C46.467 52.6146 45.5739 59.3696 47.6315 66.9393C52.38 63.1715 54.7881 59.2339 54.6185 55.5565C54.4942 52.8862 52.9905 50.3742 50.2545 48.1905V48.1791ZM48.7847 46.6064C49.2822 46.9232 49.757 47.2626 50.2092 47.6021C53.1714 44.4792 57.5241 43.0874 62.5665 43.6645C71.8599 36.3663 77.705 20.3217 78.2477 0.678944C68.0159 -0.497812 59.2426 2.52328 53.5445 9.19911C46.2409 17.7532 44.5111 31.3877 48.7847 46.6064Z" fill="#92DEED"/>
<path d="M52.4138 46.2669L52.1538 45.9274C61.4924 38.6519 63.6066 23.3202 57.8293 4.91072L58.2363 4.78625C64.0701 23.3654 61.8994 38.8782 52.4138 46.2669Z" fill="#92DEED"/>
<path d="M92.3799 73.0607L92.2894 72.7552C88.2419 58.4305 74.935 45.588 62.6116 44.1057L62.0916 44.0491L62.4986 43.7323C71.8598 36.4342 77.7501 20.2764 78.2476 0.497868V0.260254L78.485 0.282884C103.053 3.22477 129.599 28.8079 137.648 57.3216L137.716 57.5592L137.467 57.5932C118.768 59.8448 102.001 65.5589 92.6286 72.8683L92.3799 73.0607ZM63.1656 43.7436C75.4098 45.5088 88.4906 58.1702 92.6173 72.3252C102.058 65.095 118.666 59.4488 137.174 57.1858C129.112 29.0116 102.951 3.77921 78.6772 0.735482C78.1345 20.2538 72.3572 36.2645 63.1656 43.7436Z" fill="#92DEED"/>
<path d="M75.1158 48.9825L74.8557 48.643C84.2395 41.3336 94.6409 26.9296 102.679 10.1156L103.064 10.2966C95.0027 27.1559 84.5561 41.6164 75.1158 48.9712V48.9825Z" fill="#92DEED"/>
<path d="M85.8338 59.313L85.5737 58.9736C94.9802 51.6415 109.316 40.9715 123.912 30.4373L124.16 30.788C109.576 41.3109 95.2515 51.9809 85.8338 59.313Z" fill="#92DEED"/>
<path d="M112.041 104.12C110.582 104.12 109.079 104.03 107.552 103.849H107.462L107.405 103.769C101.899 96.7995 95.7942 92.9411 89.8022 92.3866C86.8287 95.5435 82.4308 96.9352 77.3318 96.3356L76.8118 96.279L77.2188 95.9622C81.1193 92.9184 85.3477 91.6059 89.6326 91.9454C89.723 91.8548 89.8022 91.753 89.8926 91.6512C93.5783 87.3402 94.4375 80.4607 92.2668 72.7665L92.2216 72.6307L92.3347 72.5402C101.775 65.1855 118.621 59.4375 137.388 57.1745L137.569 57.1519L137.614 57.3329C141.956 72.7326 140.204 86.5368 132.787 95.2154C127.812 101.043 120.543 104.132 112.007 104.132L112.041 104.12ZM107.688 103.43C117.965 104.641 126.772 101.62 132.493 94.9212C139.785 86.3897 141.526 72.8004 137.275 57.6158C118.722 59.8788 102.103 65.5362 92.7304 72.7778C94.8898 80.5512 93.9853 87.5212 90.2318 91.9227C90.2092 91.9454 90.1979 91.968 90.1752 91.9793C96.1447 92.6469 102.205 96.5166 107.688 103.43ZM77.931 95.9622C82.5212 96.3808 86.4896 95.1135 89.2482 92.3414C85.3477 92.1038 81.5037 93.3031 77.931 95.9622Z" fill="#92DEED"/>
<path d="M93.273 85.677L93.0129 85.3375C102.476 77.9602 119.582 76.8853 138.79 82.4748L138.666 82.8935C119.593 77.3492 102.634 78.3901 93.273 85.6883V85.677Z" fill="#92DEED"/>
<path d="M82.9509 134.716L82.8605 134.433C77.0832 117.268 78.4399 102.717 86.4105 94.8646C86.5122 93.9142 86.4331 92.7601 86.3879 92.0698C86.32 91.1081 86.2748 90.8478 85.7887 88.3812C85.6417 87.6457 85.393 86.6839 85.1669 85.9598C84.6807 84.4662 83.9684 82.4634 83.4031 80.9925C83.0527 80.076 82.51 78.8992 82.069 78.0393C81.9334 77.7677 81.7751 77.4735 81.6168 77.1567C81.2663 76.4778 80.9159 75.7763 80.5993 75.1992C80.2714 74.5995 79.8418 73.8867 79.4348 73.1965C79.2539 72.891 79.073 72.5855 78.9147 72.3139C78.5643 71.7255 76.6875 68.8176 75.0255 66.7017C74.0419 65.4457 71.7468 62.5039 68.2533 59.1207C65.2234 56.1788 62.9283 54.5268 61.0741 53.1916C60.9498 53.1011 57.9537 50.9513 54.3019 49.3559C52.7191 48.6657 51.1024 48.1791 49.9153 48.0094C40.3506 53.78 25.9583 51.517 10.7858 41.707L10.5371 41.5486L10.7745 41.3675C16.4387 36.9434 23.9345 35.1556 32.4478 36.1739C57.0154 39.1158 83.5614 64.699 91.6112 93.2127C96.6423 111.056 93.4992 126.501 83.1883 134.546L82.9509 134.727V134.716ZM86.2861 95.5888C78.8582 103.373 77.6598 117.438 83.1657 133.992C93.1488 126.015 96.1448 110.83 91.2042 93.3032C83.1996 64.9479 56.8232 39.5005 32.4026 36.5813C24.1267 35.5969 16.8345 37.2941 11.2833 41.5033C25.9356 50.906 39.8192 53.203 49.1804 47.9302C49.1465 47.9302 49.1239 47.9302 49.09 47.9302L49.0674 47.5002C49.3161 47.4776 49.7796 47.3644 50.311 47.1155C50.8537 46.8666 51.125 46.6742 51.6112 46.3122L51.8712 46.6516L51.7581 46.4932L51.8825 46.6516C51.4303 47.0024 50.9667 47.3418 50.4806 47.6473C51.6451 47.8736 53.0922 48.3262 54.4942 48.9485C58.1799 50.5553 61.2098 52.739 61.3455 52.8296C63.1996 54.176 65.5173 55.8393 68.5699 58.7925C72.086 62.1984 74.3924 65.1629 75.376 66.4188C77.038 68.5574 78.9486 71.4879 79.2878 72.0763C79.4461 72.3479 79.627 72.6421 79.8079 72.9589C80.2149 73.6491 80.6445 74.3619 80.9837 74.9729C81.3003 75.55 81.662 76.2515 82.0125 76.9417C82.1708 77.2472 82.3178 77.5527 82.4648 77.813C82.9057 78.6729 83.4484 79.8723 83.8102 80.8002C84.3867 82.2711 85.099 84.2852 85.5852 85.79C85.8226 86.5142 86.0826 87.5099 86.2183 88.2454C86.7044 90.746 86.761 91.0176 86.8288 92.002C86.8627 92.5903 86.9306 93.5182 86.8853 94.3894C87.2923 94.016 87.722 93.6539 88.1516 93.3145L88.4229 93.6539C88.0724 93.9368 87.1454 94.6949 86.6931 95.7585L86.2861 95.6227C86.2861 95.6227 86.2861 95.6001 86.2861 95.5888Z" fill="#92DEED"/>
<path d="M61.7528 139.751L61.5154 139.729C36.9478 136.787 10.4018 111.203 2.35201 82.6898L2.28418 82.4522L2.53291 82.4182C21.2327 80.1666 37.9993 74.4525 47.3718 67.143L47.6205 66.9507L47.711 67.2562C51.7585 81.5809 65.0654 94.4234 77.3888 95.9057L77.9088 95.9622L77.5018 96.2791C68.1406 103.577 62.2503 119.735 61.7528 139.514V139.751ZM2.83817 82.8143C10.8992 110.989 37.0496 136.221 61.3345 139.276C61.8772 119.758 67.6545 103.747 76.8461 96.2677C64.6019 94.5026 51.521 81.8412 47.3944 67.6862C37.954 74.9164 21.3458 80.5626 2.83817 82.8256V82.8143Z" fill="#92DEED"/>
<path d="M63.6748 121.704C45.4611 119.531 25.8003 100.568 19.8308 79.4425L20.2491 79.3293C26.1734 100.307 45.6759 119.124 63.7313 121.285L63.6861 121.715L63.6748 121.704Z" fill="#92DEED"/>
<path d="M69.0337 106.711C55.0371 105.037 39.9099 90.4632 35.3311 74.2262L35.7494 74.113C40.2943 90.2029 55.2519 104.641 69.0902 106.293L69.045 106.723L69.0337 106.711Z" fill="#92DEED"/>
<path d="M37.3209 129.884L36.9365 129.703C44.9976 112.833 55.4442 98.3835 64.8845 91.0288L65.1446 91.3683C55.7607 98.6777 45.3594 113.082 37.3209 129.896V129.884Z" fill="#92DEED"/>
<path d="M2.40848 82.8708L2.36326 82.6898C-1.98948 67.2901 -0.23708 53.4858 7.17954 44.8073C13.0133 37.9843 21.9902 34.9067 32.4481 36.1626H32.5385L32.595 36.2418C38.101 43.2232 44.2061 47.0703 50.1982 47.6247C53.1716 44.4678 57.5696 43.0648 62.6685 43.6758L63.1886 43.7323L62.7816 44.0492C58.8811 47.0929 54.664 48.4054 50.3678 48.066C50.2773 48.1565 50.1982 48.2583 50.1077 48.3602C46.422 52.6712 45.5628 59.5507 47.7335 67.2448L47.7787 67.3806L47.6657 67.4711C38.2253 74.8259 21.3797 80.5739 2.61199 82.8368L2.43109 82.8595L2.40848 82.8708ZM27.9709 36.321C19.5594 36.321 12.4028 39.3648 7.51871 45.0901C0.215153 53.6216 -1.52594 67.2109 2.71374 82.3956C21.2666 80.1326 37.8862 74.4751 47.2587 67.2335C45.0993 59.4601 46.0037 52.4901 49.7573 48.0886C49.7799 48.066 49.7912 48.0433 49.8138 48.0207C43.8443 47.3531 37.7844 43.4834 32.3011 36.57C30.82 36.4002 29.3729 36.3097 27.9596 36.3097L27.9709 36.321ZM50.7522 47.67C54.6414 47.8963 58.4967 46.7082 62.0693 44.0492C57.4791 43.6192 53.5108 44.8978 50.7522 47.67Z" fill="#92DEED"/>
<path d="M19.8421 79.4423C16.62 68.0255 17.9202 57.7854 23.4261 51.3472C27.7562 46.2781 34.4153 44.0038 42.1824 44.9316L42.1372 45.3616C34.5171 44.4451 27.9936 46.6742 23.754 51.6301C18.3498 57.9552 17.0722 68.0594 20.2605 79.3291L19.8421 79.4423Z" fill="#92DEED"/>
<path d="M35.3311 74.2262C32.8551 65.4458 33.8613 57.5592 38.0897 52.6033C41.4249 48.6996 46.5465 46.9458 52.5386 47.6586L52.4933 48.0886C46.6595 47.3984 41.6624 49.0957 38.4289 52.8862C34.291 57.729 33.3187 65.4684 35.7494 74.113L35.3311 74.2262Z" fill="#92DEED"/>
<path d="M24.1044 61.0783C17.14 61.0783 9.36163 59.9128 1.22144 57.5367L1.3458 57.118C20.4074 62.6624 37.3775 61.6214 46.7387 54.3232L46.9987 54.6627C41.5493 58.9058 33.5674 61.067 24.1044 61.067V61.0783Z" fill="#92DEED"/>
<path d="M108.073 103.905L107.552 103.849C99.0731 102.83 90.3563 99.1192 82.2388 93.5183C80.622 94.1745 79.0392 95.0911 77.5016 96.2904L77.4338 96.347H77.3433C64.8617 94.8421 51.3852 81.8526 47.3038 67.3807L47.2585 67.2449L47.3716 67.1544C50.3224 64.8462 52.414 62.4813 53.5559 60.1505C51.4191 55.8395 49.6667 51.3701 48.3778 46.8214L48.2308 46.2783L48.7057 46.5838C52.6853 49.1071 54.8674 52.2074 55.037 55.5566C55.1048 57.0615 54.7656 58.6003 54.042 60.1505C60.622 73.355 70.8425 85.0886 82.284 93.043C90.6164 89.7957 99.808 93.4504 107.745 103.509L108.073 103.917V103.905ZM82.7249 93.3259C90.5372 98.6779 98.9148 102.265 107.089 103.351C99.4462 93.8917 90.6955 90.384 82.7249 93.3259ZM47.7673 67.392C51.8487 81.6263 65.0652 94.3669 77.3207 95.8831C78.7792 94.7516 80.2942 93.8577 81.8317 93.2128C70.5033 85.281 60.3959 73.6605 53.8159 60.6031C52.6288 62.8774 50.5938 65.163 47.7673 67.3807V67.392ZM48.977 47.2401C50.2094 51.4606 51.8374 55.6132 53.8159 59.63C54.4151 58.2495 54.6978 56.8804 54.6299 55.5453C54.483 52.4902 52.5384 49.6162 48.977 47.2288V47.2401Z" fill="#92DEED"/>
<path d="M82.9623 93.9482C82.1596 90.2482 80.4637 87.8268 78.0443 86.9442C74.8108 85.7675 70.3563 87.295 65.1443 91.3458L64.8843 91.0063C70.2093 86.8537 74.8221 85.3149 78.1912 86.5369C80.7463 87.4647 82.544 89.9993 83.3806 93.8464L82.9623 93.9369V93.9482Z" fill="#92DEED"/>
<path d="M54.4378 81.0265L54.1777 80.6871C60.9838 75.3804 63.0528 73.5021 63.6746 72.8345C63.392 72.959 62.9284 73.2079 62.137 73.6831L61.9222 73.3097C63.9234 72.1104 64.1608 72.1556 64.3191 72.3819C64.5 72.6422 64.7487 73.0042 54.4604 81.0265H54.4378Z" fill="#92DEED"/>
<path d="M47.3943 67.6748L47.3039 67.3693C45.0993 59.5394 45.9924 52.5128 49.7686 48.0886C49.8138 48.0321 49.8703 47.9755 49.9155 47.9189C49.4746 47.5795 48.9885 47.2513 48.491 46.9232L48.4232 46.8779L48.4006 46.7987C44.0591 31.3991 45.8115 17.5948 53.2281 8.91623C59.0506 2.09331 68.0275 -0.97304 78.4853 0.28292L78.6775 0.30555V0.497905C78.1688 20.4009 72.2106 36.6945 62.7589 44.0605L62.6911 44.1171H62.6007C57.6713 43.5174 53.4203 44.8526 50.5374 47.8736C53.3525 50.1366 54.9014 52.7504 55.0371 55.5452C55.2293 59.4375 52.6629 63.5675 47.6318 67.4938L47.383 67.6861L47.3943 67.6748ZM50.2547 48.1791C50.1982 48.2357 50.153 48.3036 50.0964 48.3602C46.4673 52.6146 45.5741 59.3696 47.6318 66.9393C52.3802 63.1715 54.7883 59.2339 54.6188 55.5565C54.4944 52.8862 52.9907 50.3742 50.2547 48.1905V48.1791ZM48.785 46.6064C49.2824 46.9232 49.7573 47.2626 50.2095 47.6021C53.1716 44.4792 57.5244 43.0874 62.5668 43.6645C71.8601 36.3663 77.7052 20.3217 78.2479 0.678944C68.0162 -0.497812 59.2428 2.52328 53.5447 9.19911C46.2411 17.7532 44.5114 31.3877 48.785 46.6064Z" fill="#92DEED"/>
<path d="M46.9986 54.6739L46.7385 54.3345C56.0432 47.0816 56.2015 34.8275 47.1568 21.5663L47.5073 21.3287C56.699 34.7935 56.5181 47.2626 46.9986 54.6739Z" fill="#92DEED"/>
<path d="M61.7526 139.751L61.5152 139.728C36.9476 136.787 10.4015 111.203 2.35179 82.6897C-2.69061 64.846 0.463716 49.4011 10.7746 41.3561L10.899 41.2656L11.0234 41.3448C27.1002 51.7433 42.2613 53.5989 51.6 46.3234L51.86 46.6629C46.7498 50.6457 45.1896 58.3399 47.7108 67.2448C51.7582 81.5695 65.0652 94.412 77.3885 95.8942L77.9086 95.9508L77.5016 96.2676C68.1404 103.566 62.25 119.724 61.7526 139.502V139.74V139.751ZM10.9216 41.7974C0.848114 49.7405 -2.20446 64.9705 2.7701 82.5765C10.752 110.841 36.9815 136.221 61.3343 139.276C61.8769 119.757 67.6542 103.747 76.8459 96.2676C64.5112 94.4912 51.3399 81.66 47.3037 67.3805C45.0765 59.4827 46.0036 52.5127 49.7345 48.1338C40.1924 53.746 25.947 51.483 10.9216 41.8087V41.7974Z" fill="#92DEED"/>
<path d="M66.0036 140C64.5452 140 63.0415 139.909 61.5152 139.728L61.323 139.706V139.513C61.8318 119.61 67.7899 103.317 77.2416 95.9508L77.3094 95.8943H77.3999C82.3292 96.494 86.5802 95.1588 89.4632 92.1377C86.648 89.8747 85.0991 87.2609 84.9635 84.4662C84.7713 80.5738 87.3377 76.4438 92.3688 72.5175L92.6175 72.3252L92.708 72.6307C94.9239 80.4607 94.0194 87.4872 90.2433 91.9114C90.1981 91.968 90.1415 92.0245 90.0963 92.0811C90.5372 92.4206 91.0234 92.7487 91.5208 93.0768L91.5887 93.1221L91.6113 93.2013C95.9527 108.601 94.2003 122.405 86.7837 131.084C81.8091 136.911 74.5395 140 66.0036 140ZM61.7639 139.321C71.9957 140.487 80.769 137.477 86.4671 130.801C93.7707 122.247 95.5005 108.612 91.2269 93.3937C90.7294 93.0768 90.2546 92.7374 89.8024 92.3979C86.8402 95.5209 82.4875 96.9126 77.4451 96.3355C68.1517 103.634 62.3066 119.678 61.7639 139.321ZM92.3801 73.0607C87.6316 76.8286 85.2235 80.7662 85.3931 84.4435C85.5175 87.1138 87.0211 89.6258 89.7571 91.8096C89.8137 91.753 89.8702 91.6851 89.9154 91.6285C93.5446 87.3741 94.4377 80.6191 92.3801 73.0494V73.0607Z" fill="#92DEED"/>
<path d="M67.0098 121.896C65.9244 121.896 64.8164 121.828 63.6746 121.692L63.7198 121.262C71.3399 122.167 77.8634 119.938 82.1031 114.994C87.5072 108.669 88.7848 98.5758 85.5965 87.2948L86.0149 87.1816C89.237 98.5984 87.9369 108.838 82.4309 115.277C78.7339 119.61 73.341 121.896 67.0098 121.896Z" fill="#92DEED"/>
<path d="M71.5999 106.87C70.7632 106.87 69.904 106.813 69.0334 106.711L69.0787 106.281C74.9125 106.983 79.9096 105.274 83.1431 101.484C87.281 96.641 88.2533 88.9016 85.8226 80.2569L86.2409 80.1438C88.7169 88.9242 87.7107 96.8107 83.4823 101.767C80.6332 105.105 76.4727 106.87 71.5999 106.87Z" fill="#92DEED"/>
<path d="M81.7639 135.214C75.9188 116.635 78.1008 101.122 87.5864 93.7332L87.8464 94.0726C78.5078 101.348 76.3936 116.68 82.1709 135.089L81.7639 135.214Z" fill="#92DEED"/>
<path d="M112.041 104.12C110.582 104.12 109.079 104.03 107.553 103.849H107.462L107.406 103.769C101.9 96.7995 95.7945 92.9411 89.8024 92.3866C86.829 95.5435 82.431 96.9352 77.3321 96.3356L76.812 96.279L77.219 95.9622C81.1195 92.9184 85.3479 91.6059 89.6328 91.9454C89.7233 91.8548 89.8024 91.753 89.8928 91.6512C93.5785 87.3402 94.4378 80.4607 92.2671 72.7665L92.2218 72.6307L92.3349 72.5402C101.775 65.1855 118.621 59.4375 137.389 57.1745L137.569 57.1519L137.615 57.3329C141.956 72.7326 140.204 86.5368 132.787 95.2154C127.813 101.043 120.543 104.132 112.007 104.132L112.041 104.12ZM107.688 103.43C117.965 104.641 126.772 101.62 132.493 94.9212C139.785 86.3897 141.527 72.8004 137.276 57.6158C118.723 59.8788 102.103 65.5362 92.7306 72.7778C94.89 80.5512 93.9855 87.5212 90.232 91.9227C90.2094 91.9454 90.1981 91.968 90.1755 91.9793C96.145 92.6469 102.205 96.5166 107.688 103.43ZM77.9313 95.9622C82.5214 96.3808 86.4898 95.1135 89.2484 92.3414C85.3479 92.1038 81.5039 93.3031 77.9313 95.9622Z" fill="#92DEED"/>
<path d="M127.892 99.4472C112.154 88.8112 97.1851 86.7971 87.8465 94.0726L87.5864 93.7332C97.072 86.3332 112.233 88.3359 128.129 99.0851L127.892 99.4359V99.4472Z" fill="#92DEED"/>
<path d="M66.0488 140C64.5791 140 63.0641 139.91 61.5152 139.728L61.323 139.706V139.514C61.8318 119.611 67.7899 103.317 77.2416 95.9509L77.3094 95.8943H77.3999C81.6283 96.4035 85.3366 95.5209 88.1404 93.3372L88.4004 93.6766C79.0618 100.952 77.1398 116.137 83.2563 134.297L83.3015 134.444L83.1772 134.535C78.5418 138.156 72.674 140.011 66.0375 140.011L66.0488 140ZM61.7639 139.321C70.0172 140.26 77.2868 138.529 82.8041 134.275C77.1285 117.302 78.4287 102.898 86.2297 95.0231C83.7198 96.2564 80.7238 96.709 77.4451 96.3243C68.1517 103.622 62.3066 119.667 61.7639 139.31V139.321Z" fill="#92DEED"/>
<path d="M61.7526 139.751L61.5151 139.729C36.9476 136.787 10.4015 111.203 2.35177 82.6898L2.28394 82.4522L2.53266 82.4182C21.2325 80.1666 37.999 74.4525 47.3716 67.143L47.6203 66.9507L47.7107 67.2562C51.7582 81.5809 65.0652 94.4234 77.3885 95.9057L77.9086 95.9622L77.5016 96.2791C68.1404 103.577 62.25 119.735 61.7526 139.514V139.751ZM2.83792 82.8143C10.899 110.989 37.0493 136.221 61.3343 139.276C61.8769 119.758 67.6542 103.747 76.8458 96.2677C64.6016 94.5026 51.5208 81.8412 47.3942 67.6862C37.9538 74.9164 21.3456 80.5626 2.83792 82.8256V82.8143Z" fill="#92DEED"/>
<path d="M37.3207 129.884L36.9363 129.703C44.9973 112.833 55.4439 98.3835 64.8843 91.0288L65.1443 91.3683C55.7605 98.6777 45.3591 113.082 37.3207 129.896V129.884Z" fill="#92DEED"/>
<path d="M2.40824 82.8708L2.36301 82.6898C-1.98973 67.2901 -0.237324 53.4858 7.1793 44.8073C13.0131 37.9843 21.9899 34.9067 32.4478 36.1626H32.5383L32.5948 36.2418C38.1007 43.2232 44.2059 47.0703 50.1979 47.6247C53.1714 44.4678 57.5693 43.0648 62.6683 43.6758L63.1883 43.7323L62.7813 44.0492C58.8808 47.0929 54.6637 48.4054 50.3675 48.066C50.2771 48.1565 50.1979 48.2583 50.1075 48.3602C46.4218 52.6712 45.5626 59.5507 47.7333 67.2448L47.7785 67.3806L47.6654 67.4711C38.2251 74.8259 21.3794 80.5739 2.61174 82.8368L2.43085 82.8595L2.40824 82.8708ZM27.9707 36.321C19.5592 36.321 12.4026 39.3648 7.51847 45.0901C0.214909 53.6216 -1.52619 67.2109 2.7135 82.3956C21.2663 80.1326 37.8859 74.4751 47.2584 67.2335C45.099 59.4601 46.0035 52.4901 49.757 48.0886C49.7796 48.066 49.7909 48.0433 49.8136 48.0207C43.8441 47.3531 37.7842 43.4834 32.3008 36.57C30.8198 36.4002 29.3726 36.3097 27.9594 36.3097L27.9707 36.321ZM50.7519 47.67C54.6411 47.8963 58.4964 46.7082 62.0691 44.0492C57.4789 43.6192 53.5106 44.8978 50.7519 47.67Z" fill="#92DEED"/>
<path d="M24.1042 61.0783C17.1398 61.0783 9.36138 59.9128 1.22119 57.5367L1.34556 57.118C20.4072 62.6624 37.3772 61.6214 46.7384 54.3232L46.9985 54.6627C41.5491 58.9058 33.5672 61.067 24.1042 61.067V61.0783Z" fill="#92DEED"/>
<path d="M108.072 103.905L107.552 103.849C99.0729 102.83 90.3561 99.1192 82.2385 93.5183C80.6218 94.1745 79.039 95.0911 77.5014 96.2904L77.4335 96.347H77.3431C64.8615 94.8421 51.3849 81.8526 47.3035 67.3807L47.2583 67.2449L47.3714 67.1544C50.3222 64.8462 52.4138 62.4813 53.5556 60.1505C51.4188 55.8395 49.6664 51.3701 48.3776 46.8214L48.2306 46.2783L48.7054 46.5838C52.6851 49.1071 54.8671 52.2074 55.0367 55.5566C55.1045 57.0615 54.7654 58.6003 54.0418 60.1505C60.6218 73.355 70.8422 85.0886 82.2837 93.043C90.6161 89.7957 99.8078 93.4504 107.744 103.509L108.072 103.917V103.905ZM82.7247 93.3259C90.537 98.6779 98.9146 102.265 107.089 103.351C99.446 93.8917 90.6953 90.384 82.7247 93.3259ZM47.7671 67.392C51.8485 81.6263 65.065 94.3669 77.3205 95.8831C78.7789 94.7516 80.2939 93.8577 81.8315 93.2128C70.5031 85.281 60.3957 73.6605 53.8157 60.6031C52.6286 62.8774 50.5935 65.163 47.7671 67.3807V67.392ZM48.9768 47.2401C50.2091 51.4606 51.8372 55.6132 53.8157 59.63C54.4149 58.2495 54.6975 56.8804 54.6297 55.5453C54.4827 52.4902 52.5381 49.6162 48.9768 47.2288V47.2401Z" fill="#92DEED"/>
<path d="M87.4617 92.3416C73.4651 90.667 58.3379 76.0933 53.759 59.8563L54.1773 59.7432C58.7223 75.833 73.6799 90.2709 87.5182 91.9229L87.473 92.3529L87.4617 92.3416Z" fill="#92DEED"/>
<path d="M97.8293 95.0798C79.6156 92.9074 59.9548 73.9435 53.9854 52.8185L54.4037 52.7053C60.3279 73.6833 79.8305 92.5 97.8859 94.6612L97.8406 95.0912L97.8293 95.0798Z" fill="#92DEED"/>
<path d="M82.962 93.9482C82.1593 90.2482 80.4635 87.8268 78.044 86.9442C74.8105 85.7675 70.3561 87.295 65.1441 91.3458L64.884 91.0063C70.2091 86.8537 74.8219 85.3149 78.191 86.5369C80.7461 87.4647 82.5437 89.9993 83.3804 93.8464L82.962 93.9369V93.9482Z" fill="#92DEED"/>
<path d="M47.3941 67.6748L47.3036 67.3693C45.099 59.5394 45.9922 52.5128 49.7683 48.0886C49.8135 48.0321 49.8701 47.9755 49.9153 47.9189C49.4744 47.5795 48.9882 47.2513 48.4908 46.9232L48.4229 46.8779L48.4003 46.7987C44.0589 31.3991 45.8113 17.5948 53.2279 8.91623C59.0504 2.09331 68.0272 -0.97304 78.4851 0.28292L78.6773 0.30555V0.497905C78.1685 20.4009 72.2104 36.6945 62.7587 44.0605L62.6909 44.1171H62.6004C57.6711 43.5174 53.4201 44.8526 50.5371 47.8736C53.3523 50.1366 54.9012 52.7504 55.0368 55.5452C55.229 59.4375 52.6626 63.5675 47.6315 67.4938L47.3828 67.6861L47.3941 67.6748ZM50.2545 48.1791C50.1979 48.2357 50.1527 48.3036 50.0962 48.3602C46.467 52.6146 45.5739 59.3696 47.6315 66.9393C52.38 63.1715 54.7881 59.2339 54.6185 55.5565C54.4942 52.8862 52.9905 50.3742 50.2545 48.1905V48.1791ZM48.7847 46.6064C49.2822 46.9232 49.757 47.2626 50.2092 47.6021C53.1714 44.4792 57.5241 43.0874 62.5665 43.6645C71.8599 36.3663 77.705 20.3217 78.2477 0.678944C68.0159 -0.497812 59.2426 2.52328 53.5445 9.19911C46.2409 17.7532 44.5111 31.3877 48.7847 46.6064Z" fill="#92DEED"/>
<path d="M53.7593 59.8562C51.2833 51.0758 52.2896 43.1892 56.5179 38.2333C59.8532 34.3296 64.986 32.5758 70.9668 33.2887L70.9215 33.7186C65.0991 33.0171 60.0906 34.7257 56.8458 38.5162C52.7079 43.359 51.7356 51.0984 54.1776 59.743L53.7593 59.8562Z" fill="#92DEED"/>
<path d="M53.9855 52.8183C50.7633 41.4015 52.0635 31.1615 57.5694 24.7233C61.8995 19.6542 68.5587 17.3686 76.3258 18.3077L76.2805 18.7377C68.6604 17.8212 62.1369 20.0502 57.8973 25.0062C52.4931 31.3312 51.2155 41.4355 54.4038 52.7052L53.9855 52.8183Z" fill="#92DEED"/>
<path d="M46.9983 54.6739L46.7383 54.3345C56.043 47.0816 56.2013 34.8275 47.1566 21.5663L47.5071 21.3287C56.6987 34.7935 56.5178 47.2626 46.9983 54.6739Z" fill="#92DEED"/>
<path d="M77.4335 96.3355H77.3431C64.8614 94.8306 51.3849 81.8411 47.3035 67.3692C44.7371 58.2946 46.3538 50.4307 51.611 46.3347C51.9502 46.0519 52.8773 45.3051 53.3408 44.2415L53.7478 44.3886C53.4652 45.4069 53.5782 47.0589 53.6348 47.9528C53.7026 48.9145 53.7365 49.1295 54.234 51.6528C54.3696 52.3769 54.6297 53.3387 54.8558 54.0742C55.3419 55.5677 56.0542 57.5705 56.6195 59.0414C56.97 59.9353 57.5013 61.1234 57.9536 61.9946C58.0893 62.2662 58.2475 62.5604 58.4058 62.8659C58.7563 63.5448 59.1068 64.2463 59.4233 64.8234C59.7512 65.4231 60.1808 66.1359 60.5991 66.8261C60.78 67.1316 60.9609 67.4371 61.1192 67.7087C61.1305 67.7313 62.6003 70.1867 65.0084 73.3209C65.9355 74.5316 66.6478 75.4142 67.1904 76.0252C68.5358 77.5301 70.3787 79.4989 71.7693 80.9019C73.3408 82.486 76.4612 85.0093 76.7778 85.2469C78.0214 86.1747 79.7512 87.3628 81.0627 88.2227C81.7184 88.6527 82.6342 89.1732 83.3465 89.5352C85.0989 90.4178 85.6868 90.712 87.0322 91.1985C87.5975 91.4022 88.321 91.6285 88.8298 91.7643C89.2594 91.8774 89.8586 91.9793 90.2882 92.0472L90.2317 92.4771C85.7546 91.9453 81.4697 93.2352 77.5127 96.3129L77.4448 96.3695L77.4335 96.3355ZM53.1486 45.3843C52.6738 46.0179 52.1198 46.4705 51.8711 46.6742C46.7495 50.657 45.2006 58.3625 47.7105 67.2561C51.7467 81.5469 65.0084 94.3667 77.3091 95.8942C80.6217 93.3371 84.1492 92.0019 87.8462 91.9114C87.5183 91.8096 87.1791 91.6964 86.8739 91.5833C85.5059 91.0854 84.9067 90.7912 83.143 89.8973C82.4194 89.5352 81.481 89.0034 80.814 88.5621C79.4912 87.7022 77.7614 86.4915 76.5064 85.5637C76.1899 85.3261 73.0242 82.7802 71.4414 81.1848C70.0395 79.7704 68.1967 77.8016 66.84 76.2854C66.286 75.6631 65.5624 74.7692 64.6353 73.5585C62.2272 70.4243 60.7348 67.9237 60.7235 67.901C60.5652 67.6295 60.3843 67.3353 60.2034 67.0298C59.7851 66.3396 59.3668 65.6154 59.0276 65.0044C58.7111 64.4273 58.3493 63.7258 57.9988 63.0356C57.8405 62.7301 57.6936 62.4246 57.5466 62.1644C57.0943 61.2931 56.5517 60.0824 56.2012 59.1772C55.6246 57.7063 54.9123 55.6922 54.4262 54.1873C54.1887 53.4518 53.9287 52.4561 53.793 51.732C53.2956 49.1748 53.2504 48.9598 53.1825 47.9754C53.1373 47.3304 53.0695 46.3121 53.1373 45.3843H53.1486Z" fill="#92DEED"/>
<path d="M61.7526 139.751L61.5151 139.729C36.9476 136.787 10.4015 111.203 2.35177 82.6898L2.28394 82.4522L2.53266 82.4182C21.2325 80.1666 37.999 74.4525 47.3716 67.143L47.6203 66.9507L47.7107 67.2562C51.7582 81.5809 65.0652 94.4234 77.3885 95.9057L77.9086 95.9622L77.5016 96.2791C68.1404 103.577 62.25 119.735 61.7526 139.514V139.751ZM2.83792 82.8143C10.899 110.989 37.0493 136.221 61.3343 139.276C61.8769 119.758 67.6542 103.747 76.8458 96.2677C64.6016 94.5026 51.5208 81.8412 47.3942 67.6862C37.9538 74.9164 21.3456 80.5626 2.83792 82.8256V82.8143Z" fill="#92DEED"/>
<path d="M37.3207 129.884L36.9363 129.703C44.9973 112.833 55.4439 98.3835 64.8843 91.0288L65.1443 91.3683C55.7605 98.6777 45.3591 113.082 37.3207 129.896V129.884Z" fill="#92DEED"/>
<path d="M16.0996 109.563L15.8508 109.212C30.424 98.7004 44.7485 88.0304 54.1776 80.687L54.4376 81.0265C45.0085 88.3699 30.6841 99.0399 16.0996 109.563Z" fill="#92DEED"/>
<path d="M2.40824 82.8708L2.36301 82.6898C-1.98973 67.2901 -0.237324 53.4858 7.1793 44.8073C13.0131 37.9843 21.9899 34.9067 32.4478 36.1626H32.5383L32.5948 36.2418C38.1007 43.2232 44.2059 47.0703 50.1979 47.6247C53.1714 44.4678 57.5693 43.0648 62.6683 43.6758L63.1883 43.7323L62.7813 44.0492C58.8808 47.0929 54.6637 48.4054 50.3675 48.066C50.2771 48.1565 50.1979 48.2583 50.1075 48.3602C46.4218 52.6712 45.5626 59.5507 47.7333 67.2448L47.7785 67.3806L47.6654 67.4711C38.2251 74.8259 21.3794 80.5739 2.61174 82.8368L2.43085 82.8595L2.40824 82.8708ZM27.9707 36.321C19.5592 36.321 12.4026 39.3648 7.51847 45.0901C0.214909 53.6216 -1.52619 67.2109 2.7135 82.3956C21.2663 80.1326 37.8859 74.4751 47.2584 67.2335C45.099 59.4601 46.0035 52.4901 49.757 48.0886C49.7796 48.066 49.7909 48.0433 49.8136 48.0207C43.8441 47.3531 37.7842 43.4834 32.3008 36.57C30.8198 36.4002 29.3726 36.3097 27.9594 36.3097L27.9707 36.321ZM50.7519 47.67C54.6411 47.8963 58.4964 46.7082 62.0691 44.0492C57.4789 43.6192 53.5106 44.8978 50.7519 47.67Z" fill="#92DEED"/>
<path d="M24.1042 61.0783C17.1398 61.0783 9.36138 59.9128 1.22119 57.5367L1.34556 57.118C20.4072 62.6624 37.3772 61.6214 46.7384 54.3232L46.9985 54.6627C41.5491 58.9058 33.5672 61.067 24.1042 61.067V61.0783Z" fill="#92DEED"/>
<path d="M108.072 103.905L107.552 103.849C99.0729 102.83 90.3561 99.1192 82.2385 93.5183C80.6218 94.1745 79.039 95.0911 77.5014 96.2904L77.4335 96.347H77.3431C64.8615 94.8421 51.3849 81.8526 47.3035 67.3807L47.2583 67.2449L47.3714 67.1544C50.3222 64.8462 52.4138 62.4813 53.5556 60.1505C51.4188 55.8395 49.6664 51.3701 48.3776 46.8214L48.2306 46.2783L48.7054 46.5838C52.6851 49.1071 54.8671 52.2074 55.0367 55.5566C55.1045 57.0615 54.7654 58.6003 54.0418 60.1505C60.6218 73.355 70.8422 85.0886 82.2837 93.043C90.6161 89.7957 99.8078 93.4504 107.744 103.509L108.072 103.917V103.905ZM82.7247 93.3259C90.537 98.6779 98.9146 102.265 107.089 103.351C99.446 93.8917 90.6953 90.384 82.7247 93.3259ZM47.7671 67.392C51.8485 81.6263 65.065 94.3669 77.3205 95.8831C78.7789 94.7516 80.2939 93.8577 81.8315 93.2128C70.5031 85.281 60.3957 73.6605 53.8157 60.6031C52.6286 62.8774 50.5935 65.163 47.7671 67.3807V67.392ZM48.9768 47.2401C50.2091 51.4606 51.8372 55.6132 53.8157 59.63C54.4149 58.2495 54.6975 56.8804 54.6297 55.5453C54.4827 52.4902 52.5381 49.6162 48.9768 47.2288V47.2401Z" fill="#92DEED"/>
<path d="M87.4617 92.3416C73.4651 90.667 58.3379 76.0933 53.759 59.8563L54.1773 59.7432C58.7223 75.833 73.6799 90.2709 87.5182 91.9229L87.473 92.3529L87.4617 92.3416Z" fill="#92DEED"/>
<path d="M97.8293 95.0798C79.6156 92.9074 59.9548 73.9435 53.9854 52.8185L54.4037 52.7053C60.3279 73.6833 79.8305 92.5 97.8859 94.6612L97.8406 95.0912L97.8293 95.0798Z" fill="#92DEED"/>
<path d="M82.962 93.9482C82.1593 90.2482 80.4635 87.8268 78.044 86.9442C74.8105 85.7675 70.3561 87.295 65.1441 91.3458L64.884 91.0063C70.2091 86.8537 74.8219 85.3149 78.191 86.5369C80.7461 87.4647 82.5437 89.9993 83.3804 93.8464L82.962 93.9369V93.9482Z" fill="#92DEED"/>
<path d="M47.3941 67.6748L47.3036 67.3693C45.099 59.5394 45.9922 52.5128 49.7683 48.0886C49.8135 48.0321 49.8701 47.9755 49.9153 47.9189C49.4744 47.5795 48.9882 47.2513 48.4908 46.9232L48.4229 46.8779L48.4003 46.7987C44.0589 31.3991 45.8113 17.5948 53.2279 8.91623C59.0504 2.09331 68.0272 -0.97304 78.4851 0.28292L78.6773 0.30555V0.497905C78.1685 20.4009 72.2104 36.6945 62.7587 44.0605L62.6909 44.1171H62.6004C57.6711 43.5174 53.4201 44.8526 50.5371 47.8736C53.3523 50.1366 54.9012 52.7504 55.0368 55.5452C55.229 59.4375 52.6626 63.5675 47.6315 67.4938L47.3828 67.6861L47.3941 67.6748ZM50.2545 48.1791C50.1979 48.2357 50.1527 48.3036 50.0962 48.3602C46.467 52.6146 45.5739 59.3696 47.6315 66.9393C52.38 63.1715 54.7881 59.2339 54.6185 55.5565C54.4942 52.8862 52.9905 50.3742 50.2545 48.1905V48.1791ZM48.7847 46.6064C49.2822 46.9232 49.757 47.2626 50.2092 47.6021C53.1714 44.4792 57.5241 43.0874 62.5665 43.6645C71.8599 36.3663 77.705 20.3217 78.2477 0.678944C68.0159 -0.497812 59.2426 2.52328 53.5445 9.19911C46.2409 17.7532 44.5111 31.3877 48.7847 46.6064Z" fill="#92DEED"/>
<path d="M53.7593 59.8562C51.2833 51.0758 52.2896 43.1892 56.5179 38.2333C59.8532 34.3296 64.986 32.5758 70.9668 33.2887L70.9215 33.7186C65.0991 33.0171 60.0906 34.7257 56.8458 38.5162C52.7079 43.359 51.7356 51.0984 54.1776 59.743L53.7593 59.8562Z" fill="#92DEED"/>
<path d="M53.9855 52.8183C50.7633 41.4015 52.0635 31.1615 57.5694 24.7233C61.8995 19.6542 68.5587 17.3686 76.3258 18.3077L76.2805 18.7377C68.6604 17.8212 62.1369 20.0502 57.8973 25.0062C52.4931 31.3312 51.2155 41.4355 54.4038 52.7052L53.9855 52.8183Z" fill="#92DEED"/>
<path d="M46.9983 54.6739L46.7383 54.3345C56.043 47.0816 56.2013 34.8275 47.1566 21.5663L47.5071 21.3287C56.6987 34.7935 56.5178 47.2626 46.9983 54.6739Z" fill="#92DEED"/>
<path d="M108.072 103.905L107.552 103.849C82.9847 100.907 56.4386 75.3237 48.3889 46.81C43.3465 28.9663 46.5008 13.5101 56.8117 5.47645L57.0492 5.29541L57.1396 5.57828C62.9169 22.7431 61.5602 37.2941 53.5896 45.1467C53.4087 46.9458 53.7026 50.1932 54.7202 53.6555C55.1724 55.2057 55.896 57.2198 56.4273 58.5889C56.71 59.313 57.117 60.2069 57.4788 60.999C57.6031 61.2705 57.7275 61.5308 57.8406 61.7797C58.632 63.5222 59.4347 64.8913 61.0514 67.6295C61.0627 67.6522 62.5551 70.1528 64.9632 73.287C65.879 74.4751 66.9078 75.8216 69.3725 78.4806C71.0458 80.2796 73.2504 82.3277 74.0192 82.9726C76.416 84.9867 77.6145 85.9937 80.7575 88.0191C81.4471 88.4717 82.2838 88.9582 82.8604 89.2524C84.1944 89.9389 85.3891 90.5046 86.4443 90.9497C87.1226 91.2325 88.5359 91.753 90.2544 92.0019C96.3256 92.7261 102.363 96.6976 107.722 103.475L108.05 103.883L108.072 103.905ZM56.8457 6.00825C46.8626 13.9853 43.8553 29.17 48.8072 46.6968C56.7552 74.8485 82.8151 100.137 107.077 103.362C101.877 96.924 96.0542 93.1561 90.2204 92.4545C88.4454 92.1943 86.9983 91.6625 86.2973 91.3683C85.227 90.9232 84.0211 90.3537 82.6795 89.6597C81.9559 89.2864 81.074 88.7432 80.5314 88.4038C77.377 86.3671 76.1673 85.3487 73.7592 83.3234C72.9904 82.6784 70.7631 80.6078 69.0786 78.7974C66.6026 76.1271 65.5624 74.7693 64.6467 73.5699C62.2046 70.3904 60.7122 67.8898 60.7009 67.8671C59.0729 65.1176 58.2589 63.7372 57.4675 61.972C57.3544 61.7344 57.2414 61.4629 57.1057 61.1913C56.7326 60.3993 56.3256 59.4941 56.0429 58.7586C55.5116 57.3782 54.788 55.3415 54.3245 53.7913C53.3748 50.5779 53.0469 47.5115 53.1373 45.5993C52.7303 45.9727 52.3007 46.3348 51.8598 46.6855L51.5884 46.3461C52.0181 45.984 52.2894 45.7577 52.6286 45.3504C53.0695 44.8073 53.2504 44.4339 53.3182 44.2528L53.7252 44.3886C53.7252 44.3886 53.7252 44.4112 53.7252 44.4225C61.1532 36.6378 62.3516 22.5734 56.8457 6.00825Z" fill="#92DEED"/>
<path d="M2.40824 82.8708L2.36301 82.6898C-1.98973 67.2901 -0.237324 53.4858 7.1793 44.8073C13.0131 37.9843 21.9899 34.9067 32.4478 36.1626H32.5383L32.5948 36.2418C38.1007 43.2232 44.2059 47.0703 50.1979 47.6247C53.1714 44.4678 57.5693 43.0648 62.6683 43.6758L63.1883 43.7323L62.7813 44.0492C58.8808 47.0929 54.6637 48.4054 50.3675 48.066C50.2771 48.1565 50.1979 48.2583 50.1075 48.3602C46.4218 52.6712 45.5626 59.5507 47.7333 67.2448L47.7785 67.3806L47.6654 67.4711C38.2251 74.8259 21.3794 80.5739 2.61174 82.8368L2.43085 82.8595L2.40824 82.8708ZM27.9707 36.321C19.5592 36.321 12.4026 39.3648 7.51847 45.0901C0.214909 53.6216 -1.52619 67.2109 2.7135 82.3956C21.2663 80.1326 37.8859 74.4751 47.2584 67.2335C45.099 59.4601 46.0035 52.4901 49.757 48.0886C49.7796 48.066 49.7909 48.0433 49.8136 48.0207C43.8441 47.3531 37.7842 43.4834 32.3008 36.57C30.8198 36.4002 29.3726 36.3097 27.9594 36.3097L27.9707 36.321ZM50.7519 47.67C54.6411 47.8963 58.4964 46.7082 62.0691 44.0492C57.4789 43.6192 53.5106 44.8978 50.7519 47.67Z" fill="#92DEED"/>
<path d="M38.6659 50.6683C30.7179 50.6683 21.4245 47.3643 11.8711 40.9035L12.1085 40.5527C27.8462 51.1888 42.8151 53.2029 52.1537 45.9273L52.4138 46.2668C48.6263 49.22 43.9457 50.6683 38.6659 50.6683Z" fill="#92DEED"/>
<path d="M91.758 93.7331L91.2831 93.4276C87.3035 90.9044 85.1215 87.8041 84.9519 84.4549C84.884 82.95 85.2232 81.4111 85.9468 79.861C79.3668 66.6564 69.1463 54.9228 57.7048 46.9684C49.3724 50.2271 40.1808 46.5611 32.2441 36.5021L31.9163 36.0947L32.4363 36.1513C40.9157 37.1696 49.6325 40.881 57.7501 46.4819C59.3668 45.8256 60.9496 44.9091 62.4872 43.7097L62.555 43.6531H62.6455C75.1271 45.158 88.6037 58.1476 92.6851 72.6194L92.7303 72.7552L92.6172 72.8457C89.6664 75.154 87.5748 77.5188 86.4216 79.8497C88.5584 84.1607 90.3108 88.6301 91.5997 93.1787L91.7467 93.7218L91.758 93.7331ZM86.2068 80.3588C85.6076 81.7393 85.325 83.1084 85.3928 84.4435C85.5398 87.4986 87.4844 90.3726 91.0457 92.76C89.8134 88.5396 88.1853 84.387 86.2181 80.3702L86.2068 80.3588ZM58.191 46.776C69.5194 54.7192 79.6268 66.3283 86.2068 79.3858C87.3939 77.1115 89.429 74.8258 92.2554 72.6081C88.174 58.3739 74.9575 45.6332 62.702 44.117C61.2436 45.2485 59.7286 46.1424 58.191 46.7874V46.776ZM32.9225 36.6378C40.5652 46.1085 49.3272 49.6048 57.2865 46.6629C49.4742 41.3109 41.0966 37.7241 32.9225 36.6378Z" fill="#92DEED"/>
<path d="M64.251 53.8593C63.3804 53.8593 62.5664 53.7235 61.8202 53.452C59.2651 52.5242 57.4675 49.9896 56.6309 46.1425L57.0492 46.052C57.8519 49.752 59.5591 52.1734 61.9672 53.056C65.2007 54.2327 69.6665 52.7052 74.8672 48.6544L75.1272 48.9939C70.9893 52.2187 67.2809 53.8706 64.251 53.8706V53.8593Z" fill="#92DEED"/>
<path d="M75.9299 67.7427C75.8055 67.7427 75.749 67.6862 75.7037 67.6183C75.5228 67.358 75.2741 66.9959 85.5624 58.9736L85.8224 59.3131C79.0163 64.6198 76.9474 66.4981 76.3256 67.1657C76.6082 67.0299 77.0717 66.7923 77.8744 66.317L78.0893 66.6904C76.7213 67.5051 76.1786 67.7427 75.9185 67.7427H75.9299Z" fill="#92DEED"/>
<path d="M66.0034 140C64.5449 140 63.0412 139.909 61.515 139.728L61.3228 139.706V139.513C61.8315 119.61 67.7897 103.317 77.2413 95.9508L77.3092 95.8943H77.3996C82.329 96.494 86.58 95.1588 89.4629 92.1377C86.6478 89.8747 85.0989 87.2609 84.9632 84.4662C84.771 80.5738 87.3374 76.4438 92.3685 72.5175L92.6173 72.3252L92.7077 72.6307C94.9237 80.4607 94.0192 87.4872 90.243 91.9114C90.1978 91.968 90.1413 92.0245 90.0961 92.0811C90.537 92.4206 91.0231 92.7487 91.5206 93.0768L91.5884 93.1221L91.611 93.2013C95.9525 108.601 94.2001 122.405 86.7835 131.084C81.8089 136.911 74.5393 140 66.0034 140ZM61.7637 139.321C71.9954 140.487 80.7688 137.477 86.4669 130.801C93.7705 122.247 95.5003 108.612 91.2267 93.3937C90.7292 93.0768 90.2543 92.7374 89.8021 92.3979C86.84 95.5209 82.4872 96.9126 77.4449 96.3355C68.1515 103.634 62.3064 119.678 61.7637 139.321ZM92.3798 73.0607C87.6314 76.8286 85.2233 80.7662 85.3928 84.4435C85.5172 87.1138 87.0209 89.6258 89.7569 91.8096C89.8134 91.753 89.8699 91.6851 89.9152 91.6285C93.5443 87.3741 94.4375 80.6191 92.3798 73.0494V73.0607Z" fill="#92DEED"/>
<path d="M92.5042 118.683C83.3125 105.218 83.4934 92.7487 93.0129 85.3374L93.273 85.6769C83.9683 92.9297 83.81 105.184 92.8547 118.445L92.5042 118.683Z" fill="#92DEED"/>
<path d="M47.3941 67.6748L47.3036 67.3693C45.099 59.5394 45.9922 52.5128 49.7683 48.0886C49.8135 48.0321 49.8701 47.9755 49.9153 47.9189C49.4744 47.5795 48.9882 47.2513 48.4908 46.9232L48.4229 46.8779L48.4003 46.7987C44.0589 31.3991 45.8113 17.5948 53.2279 8.91623C59.0504 2.09331 68.0272 -0.97304 78.4851 0.28292L78.6773 0.30555V0.497905C78.1685 20.4009 72.2104 36.6945 62.7587 44.0605L62.6909 44.1171H62.6004C57.6711 43.5174 53.4201 44.8526 50.5371 47.8736C53.3523 50.1366 54.9012 52.7504 55.0368 55.5452C55.229 59.4375 52.6626 63.5675 47.6315 67.4938L47.3828 67.6861L47.3941 67.6748ZM50.2545 48.1791C50.1979 48.2357 50.1527 48.3036 50.0962 48.3602C46.467 52.6146 45.5739 59.3696 47.6315 66.9393C52.38 63.1715 54.7881 59.2339 54.6185 55.5565C54.4942 52.8862 52.9905 50.3742 50.2545 48.1905V48.1791ZM48.7847 46.6064C49.2822 46.9232 49.757 47.2626 50.2092 47.6021C53.1714 44.4792 57.5241 43.0874 62.5665 43.6645C71.8599 36.3663 77.705 20.3217 78.2477 0.678944C68.0159 -0.497812 59.2426 2.52328 53.5445 9.19911C46.2409 17.7532 44.5111 31.3877 48.7847 46.6064Z" fill="#92DEED"/>
<path d="M53.7593 59.8562C51.2833 51.0758 52.2896 43.1892 56.5179 38.2333C59.8532 34.3296 64.986 32.5758 70.9668 33.2887L70.9215 33.7186C65.0991 33.0171 60.0906 34.7257 56.8458 38.5162C52.7079 43.359 51.7356 51.0984 54.1776 59.743L53.7593 59.8562Z" fill="#92DEED"/>
<path d="M53.9855 52.8183C50.7633 41.4015 52.0635 31.1615 57.5694 24.7233C61.8995 19.6542 68.5587 17.3686 76.3258 18.3077L76.2805 18.7377C68.6604 17.8212 62.1369 20.0502 57.8973 25.0062C52.4931 31.3312 51.2155 41.4355 54.4038 52.7052L53.9855 52.8183Z" fill="#92DEED"/>
<path d="M52.4138 46.2669L52.1538 45.9274C61.4924 38.6519 63.6066 23.3202 57.8293 4.91072L58.2363 4.78625C64.0701 23.3654 61.8994 38.8782 52.4138 46.2669Z" fill="#92DEED"/>
<path d="M92.3799 73.0607L92.2894 72.7552C88.2419 58.4305 74.935 45.588 62.6116 44.1057L62.0916 44.0491L62.4986 43.7323C71.8598 36.4342 77.7501 20.2764 78.2476 0.497868V0.260254L78.485 0.282884C103.053 3.22477 129.599 28.8079 137.648 57.3216L137.716 57.5592L137.467 57.5932C118.768 59.8448 102.001 65.5589 92.6286 72.8683L92.3799 73.0607ZM63.1656 43.7436C75.4098 45.5088 88.4906 58.1702 92.6173 72.3252C102.058 65.095 118.666 59.4488 137.174 57.1858C129.112 29.0116 102.951 3.77921 78.6772 0.735482C78.1345 20.2538 72.3572 36.2645 63.1656 43.7436Z" fill="#92DEED"/>
<path d="M104.262 65.8983C99.7173 49.8084 84.7597 35.3705 70.9214 33.7185L70.9666 33.2886C84.9632 34.9632 100.09 49.5369 104.669 65.7738L104.251 65.887L104.262 65.8983Z" fill="#92DEED"/>
<path d="M119.751 60.6821C113.827 39.7042 94.3244 20.8874 76.269 18.7262L76.3143 18.2963C94.5279 20.4687 114.189 39.4326 120.158 60.5576L119.74 60.6708L119.751 60.6821Z" fill="#92DEED"/>
<path d="M75.1158 48.9825L74.8557 48.643C84.2395 41.3336 94.6409 26.9296 102.679 10.1156L103.064 10.2966C95.0027 27.1559 84.5561 41.6164 75.1158 48.9712V48.9825Z" fill="#92DEED"/>
<path d="M112.041 104.12C110.582 104.12 109.079 104.03 107.552 103.849H107.462L107.405 103.769C101.899 96.7995 95.7942 92.9411 89.8022 92.3866C86.8287 95.5435 82.4308 96.9352 77.3318 96.3356L76.8118 96.279L77.2188 95.9622C81.1193 92.9184 85.3477 91.6059 89.6326 91.9454C89.723 91.8548 89.8022 91.753 89.8926 91.6512C93.5783 87.3402 94.4375 80.4607 92.2668 72.7665L92.2216 72.6307L92.3347 72.5402C101.775 65.1855 118.621 59.4375 137.388 57.1745L137.569 57.1519L137.614 57.3329C141.956 72.7326 140.204 86.5368 132.787 95.2154C127.812 101.043 120.543 104.132 112.007 104.132L112.041 104.12ZM107.688 103.43C117.965 104.641 126.772 101.62 132.493 94.9212C139.785 86.3897 141.526 72.8004 137.275 57.6158C118.722 59.8788 102.103 65.5362 92.7304 72.7778C94.8898 80.5512 93.9853 87.5212 90.2318 91.9227C90.2092 91.9454 90.1979 91.968 90.1752 91.9793C96.1447 92.6469 102.205 96.5166 107.688 103.43ZM77.931 95.9622C82.5212 96.3808 86.4896 95.1135 89.2482 92.3414C85.3477 92.1038 81.5037 93.3031 77.931 95.9622Z" fill="#92DEED"/>
<path d="M90.0283 92.4999C89.1917 92.4999 88.3325 92.4433 87.4619 92.3414L87.5071 91.9115C93.3409 92.613 98.3381 90.9044 101.572 87.1139C105.71 82.2711 106.682 74.5317 104.251 65.8871L104.669 65.7739C107.145 74.5543 106.139 82.4409 101.911 87.3968C99.0617 90.7347 94.9011 92.4999 90.0283 92.4999Z" fill="#92DEED"/>
<path d="M101.153 95.2834C100.068 95.2834 98.9598 95.2155 97.8179 95.0797L97.8631 94.6498C105.483 95.5663 112.007 93.3372 116.246 88.3813C121.651 82.0562 122.928 71.9519 119.74 60.6822L120.158 60.5691C123.38 71.9859 122.08 82.2259 116.574 88.6641C112.877 92.9978 107.484 95.2834 101.153 95.2834Z" fill="#92DEED"/>
<path d="M93.273 85.677L93.0129 85.3375C102.476 77.9602 119.582 76.8853 138.79 82.4748L138.666 82.8935C119.593 77.3492 102.634 78.3901 93.273 85.6883V85.677Z" fill="#92DEED"/>
<path d="M129.101 98.7343L128.977 98.6551C112.9 88.2679 97.7388 86.401 88.4002 93.6652L88.1402 93.3257C93.2504 89.3429 94.8106 81.6487 92.2894 72.7438C88.2419 58.4191 74.935 45.5766 62.6116 44.0943C58.3946 43.5852 54.675 44.4791 51.8711 46.6628L51.6111 46.3234C60.9384 39.0479 62.8717 23.8632 56.7552 5.70269L56.71 5.55559L56.8344 5.46507C62.4873 1.06355 69.983 -0.74684 78.485 0.282821C103.053 3.22471 129.599 28.8078 137.648 57.3215C142.691 75.1652 139.536 90.6101 129.226 98.6551L129.101 98.7456V98.7343ZM102.216 88.8563C110.164 88.8563 119.469 92.0132 129.079 98.2025C139.152 90.2481 142.205 75.0181 137.23 57.4234C129.226 29.0681 102.849 3.62073 78.4398 0.701475C70.1074 -0.294242 62.7699 1.43695 57.2075 5.72532C62.883 22.6978 61.5715 37.1017 53.7931 44.9769C56.3256 43.7323 59.3443 43.291 62.6682 43.687C75.1498 45.1806 88.6263 58.1701 92.7077 72.642C94.935 80.5398 94.0079 87.5098 90.277 91.8887C93.714 89.8633 97.7614 88.8676 102.227 88.8676L102.216 88.8563Z" fill="#92DEED"/>
<path d="M66.0036 140C64.5452 140 63.0415 139.909 61.5152 139.728L61.323 139.706V139.513C61.8318 119.61 67.7899 103.317 77.2416 95.9508L77.3094 95.8943H77.3999C82.3292 96.494 86.5802 95.1588 89.4632 92.1377C86.648 89.8747 85.0991 87.2609 84.9635 84.4662C84.7713 80.5738 87.3377 76.4438 92.3688 72.5175L92.6175 72.3252L92.708 72.6307C94.9239 80.4607 94.0194 87.4872 90.2433 91.9114C90.1981 91.968 90.1415 92.0245 90.0963 92.0811C90.5372 92.4206 91.0234 92.7487 91.5208 93.0768L91.5887 93.1221L91.6113 93.2013C95.9527 108.601 94.2003 122.405 86.7837 131.084C81.8091 136.911 74.5395 140 66.0036 140ZM61.7639 139.321C71.9957 140.487 80.769 137.477 86.4671 130.801C93.7707 122.247 95.5005 108.612 91.2269 93.3937C90.7294 93.0768 90.2546 92.7374 89.8024 92.3979C86.8402 95.5209 82.4875 96.9126 77.4451 96.3355C68.1517 103.634 62.3066 119.678 61.7639 139.321ZM92.3801 73.0607C87.6316 76.8286 85.2235 80.7662 85.3931 84.4435C85.5175 87.1138 87.0211 89.6258 89.7571 91.8096C89.8137 91.753 89.8702 91.6851 89.9154 91.6285C93.5446 87.3741 94.4377 80.6191 92.3801 73.0494V73.0607Z" fill="#92DEED"/>
<path d="M81.7639 135.214C75.9188 116.635 78.1008 101.122 87.5864 93.7332L87.8464 94.0726C78.5078 101.348 76.3936 116.68 82.1709 135.089L81.7639 135.214Z" fill="#92DEED"/>
<path d="M112.041 104.12C110.582 104.12 109.079 104.03 107.553 103.849H107.462L107.406 103.769C101.9 96.7995 95.7945 92.9411 89.8024 92.3866C86.829 95.5435 82.431 96.9352 77.3321 96.3356L76.812 96.279L77.219 95.9622C81.1195 92.9184 85.3479 91.6059 89.6328 91.9454C89.7233 91.8548 89.8024 91.753 89.8928 91.6512C93.5785 87.3402 94.4378 80.4607 92.2671 72.7665L92.2218 72.6307L92.3349 72.5402C101.775 65.1855 118.621 59.4375 137.389 57.1745L137.569 57.1519L137.615 57.3329C141.956 72.7326 140.204 86.5368 132.787 95.2154C127.813 101.043 120.543 104.132 112.007 104.132L112.041 104.12ZM107.688 103.43C117.965 104.641 126.772 101.62 132.493 94.9212C139.785 86.3897 141.527 72.8004 137.276 57.6158C118.723 59.8788 102.103 65.5362 92.7306 72.7778C94.89 80.5512 93.9855 87.5212 90.232 91.9227C90.2094 91.9454 90.1981 91.968 90.1755 91.9793C96.145 92.6469 102.205 96.5166 107.688 103.43ZM77.9313 95.9622C82.5214 96.3808 86.4898 95.1135 89.2484 92.3414C85.3479 92.1038 81.5039 93.3031 77.9313 95.9622Z" fill="#92DEED"/>
<path d="M90.0286 92.4999C89.1919 92.4999 88.3327 92.4433 87.4622 92.3414L87.5074 91.9115C93.3412 92.613 98.3384 90.9044 101.572 87.1139C105.71 82.2711 106.682 74.5317 104.251 65.8871L104.67 65.7739C107.146 74.5543 106.139 82.4409 101.911 87.3968C99.0619 90.7347 94.9014 92.4999 90.0286 92.4999Z" fill="#92DEED"/>
<path d="M127.892 99.4472C112.154 88.8112 97.1851 86.7971 87.8465 94.0726L87.5864 93.7332C97.072 86.3332 112.233 88.3359 128.129 99.0851L127.892 99.4359V99.4472Z" fill="#92DEED"/>
<path d="M79.6609 96.4714C78.9147 96.4714 78.1459 96.4262 77.3545 96.3357L76.8345 96.2791L77.2415 95.9623C81.289 92.8054 85.6756 91.4815 90.2771 92.036C90.6841 92.0812 90.7972 92.0812 90.8989 92.0812L90.9328 92.5112C90.4015 92.5791 89.5422 92.8393 88.4003 93.6993C86.0374 95.5436 83.0414 96.4941 79.6609 96.4941V96.4714ZM77.9424 95.9623C81.9447 96.3357 85.4608 95.4305 88.1403 93.3372C88.7395 92.8846 89.2709 92.5904 89.7231 92.3981C85.5739 92.0247 81.6168 93.224 77.9311 95.9623H77.9424Z" fill="#92DEED"/>
<path d="M66.0036 140C64.5452 140 63.0415 139.909 61.5152 139.728L61.323 139.706V139.513C61.8318 119.61 67.7899 103.317 77.2416 95.9508L77.3094 95.8943H77.3999C82.3292 96.494 86.5802 95.1588 89.4632 92.1377C86.648 89.8747 85.0991 87.2609 84.9635 84.4662C84.7713 80.5738 87.3377 76.4438 92.3688 72.5175L92.6175 72.3252L92.708 72.6307C94.9239 80.4607 94.0194 87.4872 90.2433 91.9114C90.1981 91.968 90.1415 92.0245 90.0963 92.0811C90.5372 92.4206 91.0234 92.7487 91.5208 93.0768L91.5887 93.1221L91.6113 93.2013C95.9527 108.601 94.2003 122.405 86.7837 131.084C81.8091 136.911 74.5395 140 66.0036 140ZM61.7639 139.321C71.9957 140.487 80.769 137.477 86.4671 130.801C93.7707 122.247 95.5005 108.612 91.2269 93.3937C90.7294 93.0768 90.2546 92.7374 89.8024 92.3979C86.8402 95.5209 82.4875 96.9126 77.4451 96.3355C68.1517 103.634 62.3066 119.678 61.7639 139.321ZM92.3801 73.0607C87.6316 76.8286 85.2235 80.7662 85.3931 84.4435C85.5175 87.1138 87.0211 89.6258 89.7571 91.8096C89.8137 91.753 89.8702 91.6851 89.9154 91.6285C93.5446 87.3741 94.4377 80.6191 92.3801 73.0494V73.0607Z" fill="#92DEED"/>
<path d="M81.7639 135.214C75.9188 116.635 78.1008 101.122 87.5864 93.7332L87.8464 94.0726C78.5078 101.348 76.3936 116.68 82.1709 135.089L81.7639 135.214Z" fill="#92DEED"/>
<path d="M112.041 104.12C110.582 104.12 109.079 104.03 107.553 103.849H107.462L107.406 103.769C101.9 96.7995 95.7945 92.9411 89.8024 92.3866C86.829 95.5435 82.431 96.9352 77.3321 96.3356L76.812 96.279L77.219 95.9622C81.1195 92.9184 85.3479 91.6059 89.6328 91.9454C89.7233 91.8548 89.8024 91.753 89.8928 91.6512C93.5785 87.3402 94.4378 80.4607 92.2671 72.7665L92.2218 72.6307L92.3349 72.5402C101.775 65.1855 118.621 59.4375 137.389 57.1745L137.569 57.1519L137.615 57.3329C141.956 72.7326 140.204 86.5368 132.787 95.2154C127.813 101.043 120.543 104.132 112.007 104.132L112.041 104.12ZM107.688 103.43C117.965 104.641 126.772 101.62 132.493 94.9212C139.785 86.3897 141.527 72.8004 137.276 57.6158C118.723 59.8788 102.103 65.5362 92.7306 72.7778C94.89 80.5512 93.9855 87.5212 90.232 91.9227C90.2094 91.9454 90.1981 91.968 90.1755 91.9793C96.145 92.6469 102.205 96.5166 107.688 103.43ZM77.9313 95.9622C82.5214 96.3808 86.4898 95.1135 89.2484 92.3414C85.3479 92.1038 81.5039 93.3031 77.9313 95.9622Z" fill="#92DEED"/>
<path d="M90.0286 92.4999C89.1919 92.4999 88.3327 92.4433 87.4622 92.3414L87.5074 91.9115C93.3412 92.613 98.3384 90.9044 101.572 87.1139C105.71 82.2711 106.682 74.5317 104.251 65.8871L104.67 65.7739C107.146 74.5543 106.139 82.4409 101.911 87.3968C99.0619 90.7347 94.9014 92.4999 90.0286 92.4999Z" fill="#92DEED"/>
<path d="M101.153 95.2834C100.068 95.2834 98.96 95.2155 97.8181 95.0797L97.8633 94.6498C105.483 95.5663 112.007 93.3372 116.247 88.3813C121.651 82.0562 122.928 71.9519 119.74 60.6822L120.158 60.5691C123.381 71.9859 122.08 82.2259 116.574 88.6641C112.877 92.9978 107.485 95.2834 101.153 95.2834Z" fill="#92DEED"/>
<path d="M127.892 99.4472C112.154 88.8112 97.1851 86.7971 87.8465 94.0726L87.5864 93.7332C97.072 86.3332 112.233 88.3359 128.129 99.0851L127.892 99.4359V99.4472Z" fill="#92DEED"/>
<path d="M112.086 104.12C110.616 104.12 109.101 104.03 107.553 103.849H107.462L107.406 103.769C102.284 97.2747 96.5294 93.405 90.7521 92.5224C89.6441 92.7487 88.7397 93.4163 88.3892 93.6765L88.1292 93.3371C97.6147 85.9484 112.968 87.8041 129.203 98.293L129.452 98.4515L129.215 98.6325C124.579 102.253 118.711 104.109 112.075 104.109L112.086 104.12ZM107.688 103.43C115.919 104.403 123.189 102.695 128.717 98.4967C114.065 89.094 100.17 86.797 90.8086 92.0698C90.8426 92.0698 90.8539 92.0698 90.8765 92.0698V92.1151C96.7329 93.0203 102.521 96.9239 107.688 103.441V103.43Z" fill="#92DEED"/>
<path d="M137.242 57.446C134.279 49.8876 122.793 44.3886 105.732 42.3405L105.585 42.3179L105.551 42.1821C99.9436 22.3357 90.0397 7.19628 78.3608 0.667545L77.4111 0.135742L78.4852 0.260207C103.053 3.2021 129.599 28.7852 137.649 57.2989L137.242 57.4347V57.446ZM105.924 41.9332C121.447 43.8115 132.38 48.5638 136.552 55.1491C127.948 28.129 102.962 4.2657 79.5027 0.848585C90.8424 7.68282 100.43 22.5733 105.924 41.9445V41.9332Z" fill="#92DEED"/>
<path d="M105.879 42.3066L105.642 41.9559C123.381 29.6905 123.912 30.1544 124.161 30.3354C124.195 30.3694 124.319 30.4825 124.24 30.6975L123.844 30.5391C123.844 30.5391 123.844 30.5957 123.878 30.6409C123.912 30.6862 123.957 30.6975 123.969 30.6975C123.663 30.6975 121.436 31.5688 105.913 42.3066H105.879Z" fill="#92DEED"/>
<path d="M134.506 49.5029C133.906 48.0885 133.138 46.3573 132.448 44.8863C127.462 34.5897 120.147 24.9268 111.543 17.2326C109.746 15.7051 107.439 13.8268 105.574 12.3672L105.834 12.0277C107.892 13.5439 109.893 15.1733 111.826 16.9045C112.086 17.1194 112.324 17.3344 112.561 17.5381C113.375 18.2396 114.347 19.2014 115.207 20.0387C115.489 20.3216 115.761 20.5931 116.021 20.8421C118.033 22.7996 121.108 26.3524 122.793 28.5249C124.059 30.1543 125.721 32.4965 127.858 35.6873C128.457 36.5925 129.147 37.7692 129.746 38.8102L130.142 39.4891C130.82 40.6432 131.702 42.3065 132.335 43.6191C132.493 43.9585 132.674 44.3206 132.855 44.7053C133.601 46.2441 134.291 47.783 134.924 49.3444L134.528 49.5142L134.506 49.5029Z" fill="#92DEED"/>
<path d="M107.745 103.871L107.552 103.849C82.9849 100.907 56.4388 75.3236 48.389 46.8099L48.3325 46.5949L48.5473 46.5384C67.7446 41.5485 88.6152 39.8625 105.777 41.9219L105.924 41.9445L105.958 42.0803C111.589 62.0172 112.256 84.4774 107.779 103.679L107.733 103.871H107.745ZM48.8639 46.9118C56.9249 75.1087 83.1092 100.386 107.405 103.407C111.803 84.353 111.136 62.1191 105.585 42.3405C88.5586 40.3265 67.9029 41.9898 48.8639 46.9118Z" fill="#92DEED"/>
<path d="M110.288 84.3078C92.4931 82.1806 73.2732 63.658 67.4507 43.0082L67.869 42.895C73.6576 63.3864 92.7079 81.7732 110.345 83.8778L110.3 84.3078H110.288Z" fill="#92DEED"/>
<path d="M109.757 63.3865C100.271 62.255 90.0171 52.377 86.908 41.3675L87.3263 41.2544C90.3901 52.1054 100.475 61.8476 109.814 62.9565L109.768 63.3865H109.757Z" fill="#92DEED"/>
<path d="M83.3579 94.0272L82.9961 93.8009C93.5331 77.0661 101.752 58.2267 105.551 42.0916L105.97 42.1934C102.159 58.3738 93.9175 77.2698 83.3579 94.0272Z" fill="#92DEED"/>
<path d="M48.4568 47.0137L48.4003 46.81C44.0589 31.4103 45.8113 17.6061 53.2279 8.92751C59.0504 2.09328 68.0272 -0.973076 78.4851 0.282885L78.5642 0.305515C90.3336 6.89082 100.328 22.1208 105.958 42.0803L106.049 42.3858L105.732 42.3519C88.6151 40.3039 67.8124 41.9898 48.6603 46.9571L48.4568 47.0137ZM74.008 0.429979C65.5965 0.429979 58.4399 3.4737 53.5445 9.19907C46.2635 17.7306 44.5111 31.3085 48.7508 46.4819C67.7785 41.5599 88.4116 39.8852 105.461 41.8767C99.8531 22.2 89.9944 7.19632 78.3947 0.690223C76.9023 0.509184 75.4325 0.429979 73.9967 0.429979H74.008Z" fill="#92DEED"/>
<path d="M67.4508 43.0081C64.2965 31.8516 65.574 21.8492 70.9556 15.5581C75.184 10.6021 81.6961 8.37305 89.2824 9.27825L89.2371 9.70822C81.7979 8.82565 75.4214 10.9981 71.2835 15.8296C66.0037 22.0076 64.76 31.8742 67.8691 42.8837L67.4508 42.9968V43.0081Z" fill="#92DEED"/>
<path d="M86.9081 41.3788C85.2236 35.4158 85.9132 30.0639 88.7849 26.7033C91.0574 24.0443 94.5396 22.8449 98.6097 23.3315L98.5644 23.7614C94.6413 23.2862 91.2835 24.4403 89.1128 26.9862C86.3315 30.2449 85.6758 35.4498 87.3151 41.2657L86.8968 41.3788H86.9081Z" fill="#92DEED"/>
<path d="M105.642 42.3179C88.0273 30.5164 66.7723 22.992 47.3037 21.6681L47.3376 21.2382C66.8741 22.5733 88.2082 30.1204 105.879 41.9672L105.642 42.3292V42.3179Z" fill="#92DEED"/>
<path d="M105.585 42.2614C92.1087 24.0783 74.7542 10.5117 57.9651 5.05785L58.1008 4.65051C74.969 10.1383 92.4026 23.7502 105.936 42.0125L105.597 42.2728L105.585 42.2614Z" fill="#92DEED"/>
<path d="M137.242 57.446C134.279 49.8876 122.793 44.3886 105.732 42.3405L105.585 42.3179L105.551 42.1821C99.9436 22.3357 90.0397 7.19628 78.3608 0.667545L77.4111 0.135742L78.4852 0.260207C103.053 3.2021 129.599 28.7852 137.649 57.2989L137.242 57.4347V57.446ZM105.924 41.9332C121.447 43.8115 132.38 48.5638 136.552 55.1491C127.948 28.129 102.962 4.2657 79.5027 0.848585C90.8424 7.68282 100.43 22.5733 105.924 41.9445V41.9332Z" fill="#92DEED"/>
<path d="M131.702 50.6909C125.913 30.1996 106.863 11.8127 89.2258 9.70817L89.2711 9.2782C107.066 11.4054 126.286 29.928 132.109 50.5778L131.691 50.6909H131.702Z" fill="#92DEED"/>
<path d="M121.051 45.4635C117.988 34.6124 107.903 24.8703 98.5642 23.7614L98.6094 23.3314C108.106 24.4629 118.349 34.3409 121.458 45.3503L121.04 45.4635H121.051Z" fill="#92DEED"/>
<path d="M105.97 42.1821L105.551 42.0803C109.328 26.0131 108.31 14.4605 102.748 10.3758L102.996 10.025C108.706 14.2116 109.791 25.9225 105.958 42.1708L105.97 42.1821Z" fill="#92DEED"/>
<path d="M112.041 104.12C110.582 104.12 109.079 104.03 107.553 103.849L107.315 103.815L107.372 103.577C111.826 84.4322 111.159 62.0625 105.551 42.1934L105.461 41.8879L105.777 41.9219C123.008 43.9812 134.619 49.5821 137.637 57.2989V57.3215C141.99 72.7212 140.238 86.5255 132.821 95.204C127.846 101.031 120.577 104.12 112.041 104.12ZM107.835 103.453C118.056 104.618 126.806 101.586 132.493 94.9212C139.808 86.3557 141.538 72.6986 137.23 57.446C134.279 49.9442 122.928 44.4564 106.038 42.3971C111.566 62.1757 112.211 84.3982 107.824 103.453H107.835Z" fill="#92DEED"/>
<path d="M113.545 84.5C112.482 84.5 111.397 84.4322 110.289 84.3077L110.334 83.8777C117.784 84.7716 124.15 82.5878 128.287 77.7563C133.567 71.5784 134.811 61.7117 131.702 50.7023L132.12 50.5891C135.274 61.7457 133.997 71.7481 128.615 78.0392C125.009 82.271 119.729 84.5114 113.545 84.5114V84.5Z" fill="#92DEED"/>
<path d="M111.498 63.4995C110.933 63.4995 110.356 63.4656 109.757 63.3977L109.802 62.9677C113.725 63.4316 117.083 62.2888 119.254 59.743C122.035 56.4843 122.691 51.2794 121.052 45.4635L121.47 45.3503C123.154 51.3133 122.465 56.6653 119.593 60.0258C117.66 62.3001 114.822 63.4995 111.509 63.4995H111.498Z" fill="#92DEED"/>
<path d="M138.519 82.7237C135.218 68.8289 123.234 54.0968 105.642 42.3067L105.879 41.9446C123.562 53.7913 135.614 68.6139 138.937 82.6105L138.519 82.7124V82.7237Z" fill="#92DEED"/>
<path d="M127.801 99.2773C127.168 81.2299 119.073 60.4444 105.585 42.2612L105.924 42.001C119.457 60.252 127.586 81.1281 128.219 99.2547H127.79L127.801 99.2773Z" fill="#92DEED"/>
<path d="M112.041 104.12C110.639 104.12 109.203 104.041 107.745 103.871L107.315 103.815C82.8153 100.737 56.4162 75.2219 48.3891 46.81C44.0476 31.4103 45.8 17.6061 53.2167 8.92751C59.0505 2.09328 68.0273 -0.973076 78.4852 0.282885C87.3942 1.34649 96.8345 5.40856 105.811 12.0278C107.089 12.9783 108.536 14.0645 109.588 14.981C109.87 15.2186 110.164 15.4789 110.481 15.7504C111.295 16.452 112.222 17.244 112.934 17.9003C113.669 18.5792 114.573 19.4504 115.365 20.2312L116.077 20.9214C118.745 23.5125 121.662 27.1333 122.759 28.5024C124.409 30.5617 125.065 31.5574 127.835 35.6987C128.446 36.6152 129.147 37.8259 129.757 38.8895L130.209 39.6589C131.17 41.3109 132.301 43.6192 133.081 45.2146C133.477 46.0406 133.918 47.0589 134.336 48.032C134.528 48.4959 134.72 48.9372 134.901 49.3332C135.987 51.9809 136.914 54.6626 137.66 57.3103C142.001 72.7099 140.249 86.5142 132.832 95.1928C127.858 101.02 120.588 104.109 112.052 104.109L112.041 104.12ZM107.835 103.453C118.056 104.618 126.806 101.586 132.493 94.9212C139.808 86.3558 141.538 72.6873 137.23 57.4347C136.484 54.7984 135.568 52.128 134.494 49.503C134.325 49.1069 134.132 48.6656 133.94 48.2017C133.522 47.2286 133.092 46.2216 132.697 45.3956C131.928 43.8115 130.797 41.5033 129.848 39.8626L129.395 39.0932C128.785 38.0409 128.095 36.8415 127.485 35.925C124.726 31.795 124.07 30.8106 122.431 28.774C121.334 27.4048 118.429 23.7954 115.783 21.2269L115.071 20.5367C114.279 19.7672 113.386 18.8847 112.651 18.2171C111.939 17.5721 111.023 16.7801 110.209 16.0786C109.893 15.807 109.588 15.5468 109.316 15.3092C108.265 14.3926 106.761 13.2611 105.563 12.3786C96.6536 5.80458 87.2698 1.76514 78.44 0.712853C68.1177 -0.520477 59.2766 2.50062 53.5445 9.21039C46.2297 17.7758 44.4999 31.4443 48.8074 46.6968C56.7893 74.9842 83.0527 100.375 107.417 103.396C111.826 84.2965 111.148 62.006 105.551 42.1935L105.97 42.0803C106.004 42.1822 106.026 42.2953 106.06 42.3972C106.06 42.3972 106.083 42.4764 106.094 42.5216C111.589 62.2662 112.222 84.4322 107.846 103.441L107.835 103.453Z" fill="#92DEED"/>
</g>
<defs>
<clipPath id="clip0_40_5528">
<rect width="140" height="140" fill="white"/>
</clipPath>
</defs>
</svg>
