<svg width="180" height="140" viewBox="0 0 180 140" fill="none" xmlns="http://www.w3.org/2000/svg">
<g clip-path="url(#clip0_40_5503)">
<path d="M90.0001 140C79.9445 140 72.6503 132.61 64.9393 124.778C58.9372 118.689 52.7371 112.396 45.0678 109.804C31.0213 105.051 15.7451 101.78 0.969164 98.6225L0.010498 98.4188L37.8882 0L38.0862 0.101859C45.8806 4.1536 53.9876 7.69604 62.1883 10.6613C64.7205 11.578 66.8149 13.2417 68.2425 15.4713C73.7027 23.9822 79.8611 32.0517 86.551 39.4535C87.4679 40.4721 88.6975 41.0267 90.0001 41.0267C91.3026 41.0267 92.5322 40.4721 93.4492 39.4535C100.139 32.0631 106.297 23.9935 111.758 15.4713C113.196 13.2304 115.29 11.5667 117.812 10.6613C126.002 7.70736 134.109 4.1536 141.914 0.101859L142.112 0L142.195 0.215036L180 98.4074L179.75 98.464C177.603 98.9281 175.405 99.3808 173.164 99.8448C158.315 102.923 141.487 106.409 128.305 113.222C122.886 116.018 118.218 120.85 113.706 125.536C106.839 132.643 99.7326 140 90.0001 140ZM0.583614 98.0792L1.04211 98.1811C15.8285 101.339 31.115 104.598 45.1824 109.374C52.9455 112 59.1873 118.338 65.2206 124.449C72.8691 132.213 80.1008 139.547 90.0001 139.547C99.8993 139.547 106.297 132.576 113.425 125.208C117.968 120.511 122.657 115.644 128.138 112.815C141.372 105.979 158.222 102.493 173.091 99.4034C175.238 98.962 177.353 98.5206 179.427 98.0792L141.904 0.611156C134.151 4.62894 126.096 8.14875 117.958 11.0914C115.509 11.9741 113.487 13.5812 112.112 15.7316C106.641 24.2652 100.462 32.3573 93.7618 39.7704C92.7615 40.8682 91.4381 41.4794 90.0105 41.4794C88.5829 41.4794 87.2595 40.8682 86.2592 39.7704C79.5589 32.3573 73.3797 24.2652 67.9091 15.7316C66.5232 13.5812 64.5016 11.9741 62.0633 11.0914C53.9251 8.14875 45.8598 4.62894 38.1175 0.611156L0.583614 98.0792Z" fill="#92DEED"/>
<path d="M90.0001 125.581C80.4239 125.581 73.6507 118.202 66.4711 110.382C60.8858 104.293 55.1026 98 47.8396 95.3856C34.4912 90.5869 19.2464 87.1237 5.8042 84.0566L5.88756 83.6152C19.3506 86.6823 34.6059 90.1569 47.9751 94.9556C55.3422 97.6039 61.1568 103.942 66.7733 110.065C73.8903 117.817 80.601 125.129 90.0105 125.129C99.42 125.129 105.38 118.168 111.997 110.8C116.228 106.092 120.604 101.214 125.773 98.4075C138.256 91.6055 154.345 88.0291 168.538 84.8715C170.434 84.4527 172.31 84.034 174.133 83.6152L174.217 84.0566C172.393 84.4754 170.518 84.8941 168.621 85.3129C154.46 88.4705 138.402 92.0356 125.96 98.8036C120.855 101.588 116.499 106.432 112.299 111.117C105.912 118.236 99.3054 125.581 90.0105 125.581H90.0001Z" fill="#92DEED"/>
<path d="M90.0001 114.501C81.8306 114.501 74.8699 105.9 68.1279 97.57C63.0949 91.3453 58.3329 85.4714 53.2582 83.2192C44.3072 79.2467 31.6361 76.2814 20.4656 73.6671C16.9643 72.8522 13.6611 72.0713 10.6809 71.313L10.7747 70.8716C13.7549 71.6299 17.0581 72.3995 20.5489 73.2144C31.7403 75.8287 44.4218 78.8053 53.4041 82.7891C58.5725 85.0753 63.3554 90.9945 68.4301 97.2645C75.0991 105.515 82.0078 114.037 89.9897 114.037C98.3676 114.037 105.005 105.617 111.435 97.4795C116.405 91.1869 121.094 85.2451 126.565 82.7891C135.954 78.5789 147.416 75.9532 158.503 73.4067C162.265 72.5466 165.818 71.7317 169.194 70.8716L169.288 71.313C165.901 72.1731 162.348 72.988 158.586 73.8481C147.52 76.3833 136.079 79.009 126.721 83.2079C121.334 85.6185 116.676 91.5264 111.747 97.7738C105.266 105.99 98.5552 114.49 89.9897 114.49L90.0001 114.501Z" fill="#92DEED"/>
<path d="M88.6349 100.976C80.0486 100.976 75.0677 93.6426 70.2327 86.5464C66.8357 81.5553 63.3136 76.3944 58.562 73.6781C50.2779 68.9587 36.2417 65.4162 24.967 62.5755C21.3511 61.6587 17.9333 60.7986 15.0469 59.9837L15.1511 59.5423C18.0271 60.3572 21.4449 61.2173 25.0608 62.1228C36.3564 64.9748 50.4237 68.5173 58.7496 73.2594C63.5846 76.0096 67.1379 81.2157 70.5557 86.2521C75.8076 93.9708 80.778 101.248 89.9791 100.433C98.6488 99.6636 103.296 93.303 108.215 86.5577C111.851 81.5666 115.623 76.4057 121.25 73.2481C130.316 68.1551 142.81 65.0767 153.835 62.3604C157.753 61.3984 161.452 60.4817 164.849 59.531L164.953 59.9724C161.546 60.9344 157.846 61.8398 153.928 62.8131C142.935 65.5181 130.462 68.5965 121.448 73.6668C115.905 76.7792 112.164 81.9061 108.548 86.8519C103.567 93.6652 98.8676 100.105 90.0208 100.897C89.5519 100.942 89.083 100.954 88.6349 100.954V100.976Z" fill="#92DEED"/>
<path d="M88.6976 90.8247C80.4864 90.8247 75.4846 83.2644 70.6288 75.9532C67.4923 71.2224 64.2516 66.3218 60.1772 63.5264C53.4457 58.9087 38.6906 55.072 27.916 52.2652C24.394 51.3485 21.3513 50.5563 18.9546 49.8432L19.0692 49.4019C21.4659 50.1149 24.4982 50.9071 28.0202 51.8238C38.8261 54.6306 53.6229 58.4787 60.4065 63.1415C64.5538 65.9823 67.8153 70.9168 70.9726 75.6816C76.2349 83.6266 81.2158 91.1529 89.9792 90.304C98.3467 89.5118 103.234 82.7551 108.413 75.6137C111.716 71.0526 115.134 66.3331 119.583 63.1415C126.971 57.8335 140.028 54.6533 150.511 52.1068C154.335 51.1787 157.94 50.296 160.921 49.4132L161.035 49.8546C158.045 50.7487 154.429 51.6201 150.604 52.5482C140.153 55.0947 127.138 58.2523 119.813 63.5264C115.415 66.684 112.018 71.3695 108.736 75.9079C103.494 83.1286 98.5551 89.9532 90.0105 90.7681C89.5624 90.8133 89.1248 90.836 88.6871 90.836L88.6976 90.8247Z" fill="#92DEED"/>
<path d="M89.9999 83.8868C84.1229 83.8868 76.4223 74.595 69.6387 66.401C65.4914 61.3985 61.5734 56.6677 58.5828 54.6645C50.3924 49.1754 40.3994 46.1762 30.7502 43.2676C27.8742 42.4074 25.1545 41.5813 22.4661 40.6985L22.5911 40.2684C25.2795 41.1512 27.9888 41.9661 30.8648 42.8262C40.5557 45.7348 50.5696 48.7567 58.812 54.2797C61.8443 56.3169 65.7832 61.0703 69.9513 66.0954C76.6828 74.2215 84.3105 83.4228 90.0103 83.4228C96.4084 83.4228 101.921 74.9798 106.777 67.5214C109.538 63.2773 112.153 59.2821 114.613 57.3694C123.189 50.692 137.673 46.3121 149.323 42.7809C152.23 41.8981 154.991 41.0606 157.43 40.2571L157.555 40.6872C155.106 41.4907 152.355 42.3282 149.437 43.211C137.829 46.7308 123.387 51.1108 114.863 57.7316C112.466 59.599 109.871 63.5715 107.131 67.7817C102.213 75.3193 96.6376 83.8755 90.0208 83.8755L89.9999 83.8868Z" fill="#92DEED"/>
<path d="M90 75.6023C84.4043 75.6023 77.0267 66.2652 70.514 58.0372C66.5752 53.0461 62.8447 48.338 60.0521 46.38C52.2681 40.9362 42.6919 37.8917 33.4387 34.9604C30.7294 34.1003 28.1764 33.2967 25.6443 32.414L25.7693 31.9839C28.291 32.8553 30.844 33.6589 33.5533 34.5191C42.8378 37.4617 52.4453 40.5061 60.2813 45.9952C63.1261 47.9871 66.8669 52.7179 70.8371 57.7317C77.2872 65.8917 84.6023 75.1383 90 75.1383C96.1479 75.1383 101.421 66.6274 106.078 59.1124C108.684 54.9022 111.143 50.9297 113.435 49.0849C121.594 42.4754 135.505 38.0275 146.686 34.4511C149.396 33.5797 151.959 32.7648 154.231 31.9839L154.356 32.414C152.074 33.2062 149.51 34.0211 146.801 34.8925C135.651 38.4576 121.782 42.9055 113.685 49.4584C111.455 51.2579 109.017 55.2078 106.433 59.3727C101.723 66.9782 96.3772 75.591 90.0104 75.591L90 75.6023Z" fill="#92DEED"/>
<path d="M88.6559 64.8731C81.6326 64.8731 76.485 57.7203 71.0664 50.1827C67.138 44.7162 63.0637 39.0574 58.1557 36.1827C52.2266 32.7082 45.0991 30.4107 38.2113 28.1924C34.8143 27.0946 31.6152 26.0647 28.5413 24.8989L28.6767 24.4689C31.7403 25.6346 34.9393 26.6645 38.3259 27.7623C45.2346 29.9919 52.3725 32.3007 58.3433 35.7866C63.3346 38.7065 67.4298 44.3993 71.3895 49.9111C77.0789 57.8335 82.4558 65.2918 89.9688 64.3411C97.2005 63.4018 101.389 57.7542 105.829 51.7672C108.559 48.0889 111.372 44.2975 115.061 41.3209C123.731 34.3266 133.421 30.886 143.685 27.2417C146.176 26.3589 148.76 25.4422 151.303 24.4689L151.438 24.8989C148.885 25.8723 146.301 26.789 143.81 27.6718C133.578 31.3048 123.918 34.7453 115.301 41.6831C111.653 44.6257 108.85 48.3945 106.141 52.0501C101.65 58.1051 97.3985 63.8319 90.0001 64.7825C89.5312 64.8391 89.0831 64.8731 88.635 64.8731H88.6559Z" fill="#92DEED"/>
<path d="M88.6767 57.9919C81.9139 57.9919 77.0268 50.8391 71.8584 43.3015C68.1071 37.8238 64.2307 32.1649 59.5207 29.2902C53.8729 25.8496 47.0477 23.5408 40.4412 21.2999C37.1901 20.2021 34.1265 19.1609 31.188 17.9951L31.3339 17.5651C34.262 18.7195 37.3255 19.7607 40.5662 20.8585C47.1935 23.0994 54.0501 25.4196 59.7291 28.8828C64.5121 31.8027 68.4197 37.4955 72.1918 43.0186C77.6208 50.941 82.7476 58.422 89.9688 57.4373C96.9608 56.4753 100.941 50.8391 105.162 44.8634C107.756 41.1851 110.434 37.3937 113.977 34.4171C122.272 27.4567 131.577 23.9935 141.435 20.3153C143.8 19.4325 146.249 18.5271 148.666 17.5651L148.812 17.9951C146.384 18.9571 143.935 19.8739 141.57 20.7567C131.754 24.4123 122.48 27.8755 114.238 34.7906C110.736 37.7219 108.079 41.502 105.495 45.1463C101.223 51.19 97.1901 56.9054 90.0313 57.89C89.5728 57.958 89.1248 57.9806 88.6871 57.9806L88.6767 57.9919Z" fill="#92DEED"/>
<path d="M88.6973 51.6879C82.1847 51.6879 77.5164 44.5351 72.5772 36.9975C68.9926 31.5197 65.2934 25.8496 60.771 22.9862C55.3941 19.5796 48.8189 17.2481 42.473 15.0072C39.3573 13.8981 36.4188 12.8569 33.6157 11.7024L33.7616 11.2837C36.5542 12.4381 39.4928 13.4793 42.6084 14.5771C48.9752 16.8294 55.5713 19.1721 60.9898 22.6014C65.5852 25.51 69.3156 31.2142 72.921 36.7372C78.1103 44.6709 83.0079 52.1519 89.979 51.1446C96.7522 50.16 100.545 44.5351 104.557 38.5707C107.027 34.8924 109.59 31.101 112.987 28.1358C120.938 21.2093 129.889 17.7121 139.361 14.0226C141.612 13.1511 143.935 12.2344 146.238 11.2837L146.384 11.7024C144.071 12.6645 141.747 13.5699 139.496 14.4413C130.055 18.1196 121.136 21.6054 113.248 28.4866C109.892 31.4179 107.35 35.1867 104.89 38.8423C100.827 44.886 96.9815 50.5901 90.0311 51.5974C89.5831 51.6653 89.135 51.6992 88.6973 51.6992V51.6879Z" fill="#92DEED"/>
<path d="M90.0001 46.4592C88.3537 46.4592 86.7073 45.7914 85.4568 44.4446C78.4961 36.9636 72.0772 28.7696 66.3669 20.1002C65.3665 18.5836 63.9806 17.4858 62.3447 16.9313C53.3415 13.8755 44.4218 10.152 35.8354 5.87387L36.0126 5.46643C44.5885 9.74452 53.4874 13.4567 62.4801 16.5012C64.1995 17.0784 65.6583 18.2328 66.7107 19.8399C72.4002 28.4866 78.8087 36.658 85.7486 44.1164C88.0932 46.6402 91.907 46.6289 94.2411 44.1164C101.181 36.658 107.59 28.4866 113.279 19.8399C114.331 18.2441 115.801 17.0897 117.52 16.5012C126.502 13.4454 135.412 9.7332 143.988 5.46643L144.165 5.87387C135.578 10.1633 126.659 13.8755 117.656 16.9313C116.02 17.4858 114.634 18.5836 113.633 20.1002C107.923 28.7696 101.504 36.9636 94.5433 44.4446C93.2929 45.7914 91.6465 46.4592 90.0001 46.4592Z" fill="#92DEED"/>
<path d="M163.203 101.848C158.065 85.5279 152.97 69.0833 148.051 53.1819C143.133 37.2805 138.048 20.8359 132.9 4.51578L133.296 4.36865C138.434 20.6888 143.529 37.1334 148.447 53.0348C153.366 68.9362 158.451 85.3808 163.599 101.701L163.203 101.848Z" fill="#92DEED"/>
<path d="M146.322 106.047C142.32 89.7268 138.392 73.7349 134.463 57.7429C130.535 41.751 126.606 25.7704 122.605 9.43898L123.011 9.32581C127.013 25.6459 130.941 41.6379 134.87 57.6298C138.798 73.6217 142.727 89.6023 146.728 105.934L146.322 106.047Z" fill="#92DEED"/>
<path d="M130.91 111.615C128.055 95.3063 125.043 78.7938 122.126 62.8358C119.198 46.8326 116.176 30.2861 113.321 13.9434L113.727 13.8641C116.582 30.2069 119.604 46.7421 122.532 62.7453C125.45 78.7146 128.461 95.2271 131.316 111.536L130.91 111.615Z" fill="#92DEED"/>
<path d="M114.498 124.268C112.789 107.948 110.986 91.4132 109.236 75.4326C107.496 59.452 105.693 42.9168 103.974 26.5967L104.39 26.5514C106.099 42.8715 107.902 59.4067 109.653 75.3873C111.393 91.3679 113.196 107.903 114.915 124.223L114.498 124.268Z" fill="#92DEED"/>
<path d="M97.8986 138.416C97.3359 122.163 96.7628 105.108 96.221 88.6063C95.6687 71.9693 95.0956 54.7664 94.5225 38.3783L94.9393 38.3557C95.5124 54.7437 96.0855 71.9467 96.6378 88.5837C97.1901 105.074 97.7527 122.129 98.3154 138.382L97.8986 138.404V138.416Z" fill="#92DEED"/>
<path d="M82.4974 138.2L82.0806 138.178C82.6537 121.858 83.1122 104.779 83.5603 88.2668C84.0083 71.7543 84.4668 54.6758 85.0399 38.3557L85.4567 38.3783C84.8836 54.6985 84.4251 71.7769 83.9771 88.2894C83.529 104.802 83.0601 121.88 82.4974 138.2Z" fill="#92DEED"/>
<path d="M65.7 124.913L65.2832 124.857C67.0026 108.503 68.6906 91.7186 70.337 75.5004C71.973 59.3387 73.6611 42.6224 75.37 26.325L75.7869 26.3702C74.0779 42.6564 72.3898 59.3726 70.7539 75.5343C69.1179 91.7639 67.4194 108.537 65.7 124.902V124.913Z" fill="#92DEED"/>
<path d="M49.4962 111.615L49.0898 111.536C51.945 95.2158 54.7168 78.5788 57.3948 62.485C60.0728 46.3912 62.8446 29.7542 65.6998 13.4341L66.1062 13.5133C63.251 29.8334 60.4792 46.4705 57.8012 62.5642C55.1232 78.658 52.3514 95.295 49.4962 111.615Z" fill="#92DEED"/>
<path d="M34.0744 106.047L33.668 105.934C37.6694 89.6022 41.4623 73.2255 45.1407 57.392C48.8086 41.5699 52.6016 25.2158 56.603 8.90698L57.0094 9.02016C53.0184 25.329 49.2255 41.6831 45.5575 57.5052C41.8896 73.3387 38.0862 89.7154 34.0848 106.047H34.0744Z" fill="#92DEED"/>
<path d="M16.7976 101.848L16.4016 101.701C21.5388 85.3808 26.6031 69.3096 31.6569 53.2498C36.7107 37.19 41.775 21.1302 46.9122 4.79871L47.3082 4.94584C42.171 21.266 37.1067 37.3371 32.0529 53.3969C26.999 69.4568 21.9348 85.5166 16.7976 101.848Z" fill="#92DEED"/>
</g>
<defs>
<clipPath id="clip0_40_5503">
<rect width="180" height="140" fill="white"/>
</clipPath>
</defs>
</svg>
